<svg width="1440" height="180" viewBox="0 0 1440 180" fill="none" xmlns="http://www.w3.org/2000/svg">
<g clip-path="url(#clip0_802_2)">
<rect width="1440" height="180" fill="#9C43E2"/>
<path fill-rule="evenodd" clip-rule="evenodd" d="M472.344 -166.684C521.749 -174.509 570.309 -146.362 605.392 -110.758C640.194 -75.4392 663.215 -27.2206 658.353 22.0884C653.821 68.0595 621.492 107.825 581.544 131.123C548.869 150.179 509.926 126.158 472.344 130.572C423.663 136.288 373.179 189.646 334.036 160.187C295.73 131.357 319.818 69.2485 328.199 22.0884C334.718 -14.5941 353.102 -44.7586 375.724 -74.3853C403.818 -111.177 426.58 -159.437 472.344 -166.684Z" fill="#A348EA"/>
<path fill-rule="evenodd" clip-rule="evenodd" d="M1163.57 98.0032C1211.26 95.4175 1259.31 63.7318 1300.28 83.4048C1344.68 104.728 1363.43 151.334 1360.75 192.688C1358.17 232.447 1327.09 267.796 1286.81 291.21C1251.82 311.554 1206.84 306.909 1163.57 307.308C1119.47 307.714 1071.85 315.589 1037.46 293.508C1000.57 269.817 983.764 230.505 985.071 192.688C986.345 155.804 1005.78 117.69 1044.24 97.2895C1078.7 79.0121 1122.32 100.241 1163.57 98.0032Z" fill="#A348EA"/>
<path fill-rule="evenodd" clip-rule="evenodd" d="M44.6665 107.057C-1.3827 119.691 -41.6258 160.843 -85.8328 150.302C-133.747 138.877 -161.951 97.3037 -168.099 56.3219C-174.01 16.9203 -151.128 -24.2137 -116.729 -55.634C-86.8397 -82.9347 -41.9036 -87.9289 0.297073 -97.4909C43.3142 -107.238 88.1813 -125.029 126.47 -110.739C167.548 -95.4078 192.303 -60.5506 199.042 -23.3166C205.615 12.9998 194.7 54.3676 161.438 82.4574C131.639 107.624 84.5123 96.1241 44.6665 107.057Z" fill="#923CD6"/>
<path fill-rule="evenodd" clip-rule="evenodd" d="M1184.21 16.5128C1183.1 17.9303 1181.1 29.5805 1180.79 36.4489C1180.38 45.3149 1182.26 54.5412 1185.1 57.6971C1185.52 58.1659 1185.76 58.5493 1185.64 58.5493C1185.51 58.5493 1184.77 58.8392 1183.98 59.1936C1181.84 60.1512 1182.06 60.6027 1184.66 60.6082C1186.33 60.6119 1186.92 60.8233 1186.18 61.1592C1185.4 61.518 1183.56 63.0638 1183.56 63.3633C1183.56 63.7923 1184.04 63.8945 1186.06 63.8945H1187.92L1187.77 64.4599C1187.7 64.7707 1187.56 66.2742 1187.48 67.8007C1187.33 70.5477 1187.32 70.5983 1186.35 72.7347C1184.31 77.1916 1183.06 81.7745 1182.33 87.4446C1180.91 98.5336 1183.39 107.599 1191.3 120.328C1193.51 123.866 1193.66 123.837 1192.31 120.135C1189.72 113.05 1188.9 105.562 1189.81 97.443C1190.24 93.6335 1190.12 93.1522 1189.62 96.6328C1188.55 103.971 1189.13 111.631 1191.24 118.118C1191.73 119.616 1192.1 120.842 1192.07 120.842C1191.57 120.842 1186.47 111.041 1184.9 107.067C1181.17 97.5997 1181.55 85.6564 1185.94 74.6183C1189.67 65.2532 1197.45 54.4861 1208.57 43.3265C1214.71 37.1622 1217.04 35.3706 1224.31 31.2284C1226.22 30.1376 1226.8 29.6943 1225.5 30.3179L1224.79 30.6561L1223.84 29.8751C1222.74 28.9744 1222.63 29.1333 1225.39 27.7285C1241.53 19.4961 1262.45 17.4616 1279.1 22.5056C1284.32 24.0889 1296.44 29.4598 1300.6 32.0409L1301.3 32.4737L1299.07 33.7898C1296.56 35.2639 1296.91 35.2723 1295.7 33.7088C1295.17 33.0326 1295.51 33.6517 1298.26 38.4019C1300.61 42.4402 1302.77 46.8124 1303.77 49.5035C1306.55 57.0609 1309.25 68.1508 1310.26 76.2297C1310.88 81.1076 1310.71 95.9714 1309.94 104.189C1307.91 125.985 1303 139.535 1293.04 150.818C1292.11 151.87 1291.32 152.699 1291.28 152.659C1291.24 152.62 1291.67 151.389 1292.23 149.923C1294.25 144.682 1295.74 139.235 1295.68 137.317L1295.66 136.569L1295.51 137.339C1294.92 140.347 1287.9 148.674 1283.3 151.812C1280.31 153.848 1274.25 156.825 1273.1 156.817C1272.96 156.817 1272.44 156.157 1271.94 155.353C1271.45 154.548 1270.64 153.439 1270.16 152.887L1269.27 151.885L1272 148.133C1276.56 141.868 1280.47 136.15 1281.26 134.587C1281.78 133.569 1281.56 133.852 1279.81 136.466C1274.56 144.296 1272.31 146.838 1268.21 149.562L1267.43 150.077L1266.84 149.654C1265.63 148.79 1265.61 148.853 1268.03 146.254C1274.93 138.859 1282.14 128.093 1284.15 122.195C1284.83 120.185 1284.64 120.327 1283.72 122.52C1282.06 126.456 1275.98 132.787 1269.73 137.093C1268.55 137.902 1267.56 138.532 1267.53 138.492C1267.49 138.452 1268.28 137.263 1269.28 135.849C1274.42 128.544 1279.68 117.932 1281.25 111.693C1283.07 104.448 1283.36 82.3563 1281.77 71.7991C1281.32 68.8078 1280.25 62.8779 1280.17 62.956C1280.12 63.0011 1280.37 64.7802 1280.71 66.9098C1282.1 75.499 1282.38 79.2947 1282.38 89.8976C1282.38 97.1482 1282.07 105.56 1281.78 105.882C1281.55 106.138 1278.37 103.037 1276.6 100.836C1273.24 96.6447 1270.88 92.527 1269.59 88.6174C1268.78 86.1508 1267.62 82.0549 1267.62 81.6551C1267.62 81.33 1269.72 81.8896 1272.4 82.9252C1273.41 83.3174 1274.27 83.603 1274.32 83.5598C1274.44 83.4389 1270.57 81.8736 1268.9 81.3695C1267.05 80.8076 1267.01 80.7155 1266.98 76.0241C1266.96 73.6528 1266.9 72.8794 1266.78 73.4543C1266.69 73.9065 1266.61 75.7344 1266.6 77.5164L1266.59 80.756L1265.41 80.6002C1264.76 80.5143 1262.85 80.4442 1261.16 80.4442C1257.56 80.4442 1257.91 80.7435 1257.57 77.4103C1256.9 70.9414 1257.49 65.6042 1260.01 55.2599C1260.47 53.3942 1260.89 51.6365 1260.95 51.3538L1261.07 50.8398L1260.84 51.3538C1259.34 54.7155 1256.66 69.1627 1255.62 79.5431C1255.49 80.8037 1255.43 80.9277 1254.83 81.2346C1254.21 81.5545 1254.21 81.5617 1254.75 81.4452C1255.43 81.3012 1255.44 81.3999 1255.1 84.6883C1254.82 87.3502 1254.35 98.8445 1254.52 98.8443C1254.58 98.8441 1254.7 100.718 1254.78 103.007C1254.85 105.297 1254.96 107.725 1255.02 108.404L1255.13 109.637L1254.39 108.815C1251.56 105.694 1247.88 98.4164 1245.34 90.929C1244.96 89.7983 1244.71 89.197 1244.78 89.5927C1245.24 92.1946 1248.45 100.179 1250.38 103.521C1251.72 105.849 1251.71 105.866 1249.72 105.202C1244.3 103.39 1238.85 98.2111 1235.55 91.7514C1234.62 89.9332 1234.61 89.8546 1234.43 87.2285L1234.26 84.5559L1234.23 86.5683C1234.16 91.5908 1235.47 97.3256 1238.31 104.303C1239.26 106.655 1239.08 106.592 1236.81 103.778C1233.01 99.0719 1230.23 93.276 1229.07 87.6421C1228.7 85.8735 1228.18 81.5796 1228.32 81.4443C1228.41 81.3557 1229.87 82.3399 1230.61 82.9914L1231.23 83.5279L1230.61 82.8392C1230.27 82.4605 1229.61 81.8779 1229.13 81.5445L1228.26 80.9384V78.223C1228.26 73.4565 1229.25 67.2425 1231.03 60.9135C1231.87 57.9118 1234.61 49.7842 1235.32 48.1555C1235.61 47.5052 1235.81 46.9364 1235.76 46.8914C1235.57 46.7008 1233.72 51.5399 1231.74 57.4186C1230.97 59.68 1229.84 62.6867 1229.22 64.1001C1227.76 67.4472 1226.42 71.1533 1225.1 75.5613L1224.04 79.119L1221.59 79.1654C1219.64 79.2024 1219.01 79.2892 1218.52 79.5842C1218.18 79.789 1218.09 79.8891 1218.31 79.8068C1218.82 79.621 1223.23 79.4349 1223.62 79.583C1223.84 79.6714 1223.79 80.144 1223.31 82.1236C1222.61 85.0665 1221.86 89.428 1221.2 94.4941C1220.64 98.7604 1220.73 98.4761 1219.91 98.3114C1219.23 98.1747 1219.2 98.1023 1218.52 94.3212C1216.45 82.7463 1216.57 73.1716 1218.92 63.8945C1219.64 61.0593 1219.69 60.8233 1219.33 61.7359C1218.07 64.9903 1216.58 73.9947 1216.57 78.4286C1216.57 79.9668 1216.47 80.3767 1215.44 83.1414C1213.3 88.8415 1211.26 97.2816 1211.24 100.437C1211.24 100.579 1211.14 100.694 1211.03 100.694C1210.74 100.694 1209.6 101.55 1209.6 101.764C1209.6 101.857 1209.92 101.798 1210.32 101.633L1211.03 101.332V102.257C1211.03 102.766 1210.91 103.431 1210.75 103.737C1210.6 104.042 1210.4 104.523 1210.32 104.806L1210.16 105.32L1210.59 104.806L1211.02 104.292L1211.03 105.731C1211.03 106.523 1211.09 107.679 1211.15 108.301L1211.27 109.432L1210.22 108.306C1207.87 105.77 1206.51 103.331 1205.23 99.3202C1201.49 87.6719 1201.97 74.6783 1206.53 64.0487C1207.51 61.7505 1207.36 61.7069 1206.31 63.9864C1203.92 69.1756 1202.42 75.9947 1202.42 81.6882C1202.42 82.9827 1202.36 84.0407 1202.27 84.0392C1202.19 84.0378 1200.96 83.854 1199.55 83.6307C1195.58 83.0014 1195.75 82.9624 1195.25 84.5947C1194.67 86.4771 1194.64 86.4561 1198.88 86.8588L1202.37 87.1907L1202.7 89.7048C1202.89 91.0875 1203.04 92.3017 1203.04 92.4029C1203.04 92.5069 1201.65 92.4619 1199.84 92.2995C1196.2 91.9715 1196.35 91.9183 1196.03 93.6734C1195.7 95.4085 1195.63 95.373 1200.06 95.7305L1203.86 96.037L1204.08 96.8752C1205.48 102.245 1207.46 106.021 1210.6 109.329L1211.67 110.46L1211.58 108.712L1211.48 106.965L1211.75 108.507C1212.18 110.907 1212.5 116.668 1212.43 120.739L1212.37 124.439L1211.28 122.692C1208.65 118.472 1207 114.243 1206.11 109.432C1205.77 107.618 1205.59 108.018 1205.9 109.892C1206.03 110.657 1206.31 112.67 1206.53 114.366C1207.11 118.783 1208.22 122.699 1209.7 125.567C1210.11 126.365 1210.06 126.357 1207.44 125.274C1201.35 122.749 1197.63 119.233 1194.58 113.132C1191.43 106.807 1190.13 96.9445 1191.22 87.6715C1191.41 86.106 1191.55 84.672 1191.54 84.4849C1191.5 83.8867 1191.19 85.7692 1190.74 89.3072C1190.5 91.199 1190.27 92.8097 1190.22 92.8866C1189.98 93.2758 1190.93 101.951 1191.58 105.368C1192.64 110.898 1195.34 116.319 1198.89 120.045C1200.65 121.892 1200.6 121.502 1199.41 124.953C1197.72 129.817 1193.64 137.107 1190.83 140.271C1189.98 141.238 1189.3 142.115 1189.34 142.219C1189.42 142.447 1194.08 140.919 1196.44 139.888C1198.85 138.836 1200.73 137.553 1202.81 135.54C1203.81 134.579 1204.67 133.794 1204.73 133.794C1204.79 133.794 1204.9 134.418 1204.98 135.181C1205.2 137.195 1205.77 139.267 1206.65 141.182C1207.53 143.129 1207.65 142.874 1205.13 144.454C1202.96 145.808 1203.09 145.804 1202.65 144.535C1201.98 142.59 1201.06 142.066 1198.76 142.321C1197.41 142.47 1196.86 142.481 1195.2 142.391C1194.56 142.357 1193.86 142.554 1192.58 143.125C1190.86 143.898 1190.84 143.902 1190.18 143.549C1189.21 143.024 1188.38 143.25 1185.55 144.81C1183.28 146.057 1182.95 146.182 1181.98 146.146C1180.49 146.093 1179.78 146.488 1177.53 148.621C1175.85 150.215 1175.52 150.446 1174.88 150.446C1171.03 150.446 1155.31 153.676 1152.61 155.024C1150.93 155.857 1150.5 156.997 1150.13 161.524C1149.45 170.022 1151.42 178.075 1156.2 186.246L1156.95 187.535L1156.62 190.114C1155.87 196.081 1156.51 201.882 1158.59 208.01C1159.8 211.552 1161.76 215.351 1162.17 214.941C1162.23 214.876 1161.99 214.393 1161.63 213.868C1160.71 212.529 1159.75 210.379 1158.79 207.483C1153.64 192.047 1158.18 175.352 1171.15 161.986C1174.75 158.278 1181.29 153.324 1182.59 153.324C1182.76 153.324 1184.27 154.235 1185.95 155.349C1190.33 158.26 1190.99 158.485 1192.99 157.776C1193.49 157.602 1193.99 157.58 1194.6 157.705C1196.34 158.062 1197.87 157.23 1197.65 156.055C1197.57 155.633 1197.63 155.655 1198.34 156.295C1199.26 157.131 1200.47 157.541 1201.46 157.354C1202.6 157.14 1202.77 156.78 1202.34 155.503L1201.97 154.423L1202.63 152.513C1203.23 150.742 1203.27 150.441 1203.21 148.371L1203.14 146.138L1203.65 146.034C1207.09 145.332 1215.03 145.223 1219.54 145.816C1231.02 147.322 1240.21 152.859 1246.19 161.856C1250.78 168.782 1254.17 176.946 1255.44 184.162C1256.87 192.22 1253.89 205.981 1249.18 213.119C1248.49 214.176 1248.04 215.003 1248.18 214.958C1248.56 214.841 1250.24 212.308 1251.15 210.477C1252.29 208.202 1252.47 207.999 1258.55 202.128C1264.56 196.327 1268.58 193.048 1271.37 191.668C1277.57 188.593 1283.41 195.019 1283.4 204.908C1283.39 208.806 1283.1 210.155 1281.67 212.863C1281.05 214.038 1280.63 215 1280.74 215C1280.84 215 1281.32 214.284 1281.8 213.408L1282.67 211.816L1282.83 212.74C1283.15 214.696 1283.22 215 1283.38 215C1283.47 215 1283.42 214.158 1283.26 213.129C1283.02 211.479 1283.03 211.134 1283.31 210.199C1284.28 207.083 1283.87 200.947 1282.48 197.578C1281.85 196.055 1281.56 194.764 1280.61 189.199C1278.63 177.534 1277.21 170.07 1276.5 167.51C1275.57 164.151 1274.48 160.706 1273.85 159.16C1273.47 158.199 1273.15 157.383 1273.15 157.346C1273.15 157.309 1274.24 156.853 1275.56 156.333C1278.03 155.364 1281.72 153.419 1283.45 152.174C1283.99 151.789 1284.53 151.474 1284.66 151.474C1284.79 151.474 1286.46 150.962 1288.38 150.337C1290.29 149.712 1291.91 149.246 1291.96 149.301C1292.02 149.356 1291.68 150.354 1291.22 151.517C1289.85 154.926 1289.92 154.914 1293.21 151.173L1295.38 148.699L1296.92 148.451C1305.51 147.075 1312.25 148.327 1315.92 151.978C1319.59 155.625 1320.08 158.212 1320.6 176.723L1320.7 180.487L1319.12 179.05C1316.42 176.598 1317.21 177.619 1321.04 181.538C1327.62 188.274 1333.97 197.251 1338.03 205.547C1340.47 210.551 1340.81 212.062 1339.88 213.886C1339.3 215.034 1339.31 215 1339.54 215C1339.85 215 1340.6 213.407 1340.72 212.503C1341.25 208.505 1331.43 192.097 1323.2 183.223L1320.98 180.839L1320.85 174.329C1320.72 167.769 1320.46 162.695 1320.1 159.966C1319.53 155.707 1317.15 151.754 1314.05 149.923C1313.73 149.736 1313.86 149.569 1315.1 148.602C1320.49 144.383 1324.08 138.215 1325.7 130.411C1326.26 127.724 1326.34 127.838 1326.78 132.006C1327.27 136.696 1326.91 139.306 1325.21 143.464C1324.77 144.549 1324.4 145.508 1324.4 145.595C1324.4 145.681 1324.98 145.231 1325.68 144.595C1333.77 137.296 1337.93 126.647 1336.1 117.964C1335.87 116.889 1335.68 115.945 1335.68 115.865C1335.68 115.785 1336.42 116.216 1337.32 116.822C1339.23 118.102 1342.63 119.905 1342.8 119.73C1342.87 119.663 1342.69 119.077 1342.4 118.427C1342.11 117.776 1341.09 115.467 1340.12 113.295C1336.24 104.553 1334.45 99.5764 1333.15 93.8993C1331.44 86.4861 1330.68 81.3841 1331.2 80.8605C1331.25 80.8117 1331.78 81.0184 1332.39 81.3195C1333.56 81.9007 1336.44 82.1966 1338.03 81.8981C1339.01 81.7132 1338.94 81.5327 1337.71 81.0957C1335.67 80.3667 1334.49 78.7409 1334.06 76.0446C1333.68 73.7014 1333.86 73.1777 1336.5 68.9314C1341.31 61.2061 1344.78 51.1906 1345.75 42.308C1346.13 38.8363 1346.07 30.2616 1345.64 27.0947C1344.95 21.9078 1344.52 21.2193 1342.07 21.3942C1336.74 21.7744 1308.44 29.1471 1303.47 31.4492L1301.71 32.2666L1299.85 31.2323C1284.07 22.4442 1272.56 19.2397 1257.91 19.5499C1245.64 19.8098 1236.35 21.9884 1226.05 27.0195L1222.52 28.7456L1220.01 26.9738C1217.2 24.9967 1213.96 23.3329 1211.03 22.365C1206.35 20.8157 1197.85 18.6256 1191.15 17.2439C1188.95 16.7902 1186.83 16.3233 1186.44 16.2061C1185.27 15.8591 1184.66 15.9431 1184.21 16.5128ZM1191.15 17.5967C1206.57 20.9142 1213.88 23.2764 1218.67 26.4891C1220.65 27.8171 1224.35 30.618 1224.35 30.7953C1224.35 30.8518 1223.36 31.4531 1222.16 32.1316C1218.66 34.1044 1215.38 36.3658 1213.29 38.2451C1208.73 42.3325 1201.01 50.5557 1197.72 54.8165L1196.4 56.5284L1194.7 49.8808C1192.12 39.8429 1188.46 27.4582 1188.16 27.7631C1188.11 27.8095 1188.31 28.534 1188.59 29.3728C1189.89 33.1772 1192.51 42.6565 1194.73 51.5294L1196.08 56.9207L1194.06 59.688C1192.32 62.095 1189.79 65.9977 1188.34 68.5494L1187.89 69.3425L1187.88 67.4736C1187.87 66.3807 1188 65.1856 1188.17 64.5954C1188.34 64.0403 1188.48 63.5629 1188.48 63.5348C1188.48 63.5066 1187.45 63.4834 1186.19 63.4834H1183.9L1184.38 62.9714C1184.65 62.69 1185.45 62.0778 1186.16 61.6111C1187.76 60.5665 1187.77 60.4049 1186.28 60.3792C1185.63 60.3681 1184.6 60.2986 1183.99 60.225L1182.87 60.0912L1183.88 59.6356C1184.44 59.385 1185.25 59.038 1185.69 58.8647L1186.48 58.5495L1185.61 57.7039C1182.68 54.8473 1180.84 46.1381 1181.17 36.6544C1181.38 30.5886 1183.06 20.0318 1184.27 17.1115C1184.66 16.18 1184.52 16.1701 1191.15 17.5967ZM1343.88 22.1282C1346.04 24.2909 1346.32 39.6858 1344.36 48.4756C1342.75 55.7322 1339.81 62.9665 1336.03 69.0155C1333.87 72.4637 1333.65 72.9956 1333.64 74.7906C1333.63 77.8034 1334.62 79.8556 1336.66 81.0155L1337.54 81.5163L1336.64 81.6411C1334.69 81.909 1332.64 81.3121 1331.03 80.0073C1330.05 79.2074 1329.34 79.0663 1330.22 79.8465C1330.99 80.5204 1330.92 81.0216 1329.52 85.3842C1328.22 89.4217 1328.28 89.3174 1327.95 87.835C1327.62 86.3872 1326.22 82.6028 1326 82.6028C1325.68 82.6028 1324.84 85.8983 1324.7 87.7377C1324.44 91.0433 1324.62 90.9864 1322.11 88.5899C1320.92 87.4454 1319.89 86.5089 1319.82 86.5089C1319.76 86.5089 1319.17 87.6421 1318.5 89.0274C1317.52 91.0873 1315.15 95.1448 1314.93 95.1431C1314.9 95.1429 1314.87 93.8508 1314.87 92.2717C1314.86 88.6441 1314.68 88.3874 1313.66 90.5569C1313.02 91.8959 1311.12 95.3491 1311.01 95.3491C1310.99 95.3491 1310.97 91.7179 1310.97 87.2799C1310.97 77.3986 1310.55 73.2879 1308.73 65.3435C1305.94 53.1593 1303.09 45.6963 1298.05 37.3652C1297.43 36.3259 1296.94 35.4516 1296.97 35.4222C1298.18 34.3718 1304.89 31.0909 1307.49 30.279C1315.05 27.9203 1334.51 22.9976 1340.36 21.9627C1343.24 21.4547 1343.21 21.453 1343.88 22.1282ZM1340.39 36.3062C1337.74 41.7538 1333.06 50.8312 1330.41 55.6495C1325.95 63.7891 1322.36 71.2979 1319.46 78.5678C1317.53 83.3816 1318.16 82.2825 1320.7 76.3793C1323.83 69.1143 1326.3 64.059 1330.65 55.9795C1336.71 44.7465 1343.15 31.8024 1342.82 31.522C1342.78 31.4914 1341.69 33.6443 1340.39 36.3062ZM1279.95 62.2498C1279.95 62.5325 1280 62.6483 1280.05 62.5068C1280.11 62.3656 1280.11 62.1343 1280.05 61.9929C1280 61.8516 1279.95 61.9672 1279.95 62.2498ZM1229.78 64.311C1228.55 69.3099 1227.85 74.4766 1227.85 78.5256L1227.85 80.7186L1226.46 80.1319C1225.7 79.8093 1224.92 79.4981 1224.73 79.4407C1224.41 79.3437 1224.42 79.2259 1224.8 77.8343C1225.87 73.9834 1230.01 62.0848 1230.21 62.2967C1230.24 62.3273 1230.05 63.234 1229.78 64.311ZM1257.37 78.7682C1257.49 79.6555 1257.57 80.4065 1257.53 80.437C1257.5 80.4674 1257.12 80.5552 1256.7 80.6319C1255.76 80.8013 1255.79 81.2034 1256.39 76.0241L1256.85 72.0152L1256.99 74.585C1257.07 75.9984 1257.24 77.8807 1257.37 78.7682ZM1226.56 80.5507C1227.99 81.2077 1227.96 81.145 1228.15 83.8363C1228.53 89.3257 1230.69 95.3674 1234.15 100.694C1236.22 103.864 1240.15 108.486 1240.15 107.742C1240.15 107.529 1240.07 107.268 1239.97 107.16C1239.02 106.104 1235.54 95.6295 1234.95 92.0597L1234.83 91.3402L1235.28 92.1333C1239.61 99.6798 1245.8 105.124 1250.99 105.957C1252.26 106.161 1252.26 106.166 1250.97 108.301C1250.56 108.988 1250.58 108.977 1251.55 108.038L1252.57 107.057L1253.23 107.936C1254.95 110.267 1255.78 110.875 1255.6 109.689C1255.16 106.71 1255.16 105.53 1255.6 105.176C1256.52 104.436 1259.68 103.374 1262.43 102.881L1263.09 102.763L1262.3 103.583C1259.34 106.64 1257.28 115.465 1258.49 119.93C1259.43 123.406 1262.2 125.764 1266.25 126.535C1268.26 126.917 1272.11 126.803 1273.65 126.316C1274.21 126.14 1274.7 126.027 1274.74 126.064C1275 126.324 1270.63 133.43 1267.85 137.261C1266.95 138.501 1266.27 139.566 1266.33 139.627C1266.47 139.77 1271.54 136.337 1273.56 134.733C1275.18 133.445 1279.17 129.549 1280.83 127.626L1281.82 126.495L1281.13 127.729C1278.12 133.191 1272.96 140.368 1268.8 144.895C1265.06 148.953 1265.7 148.686 1263.59 147.096C1261.31 145.377 1260.6 145.177 1258.6 145.703C1254.17 146.87 1246.88 150.171 1245.85 151.477C1245.51 151.905 1245.12 152.827 1244.89 153.736C1244.45 155.447 1244.35 155.528 1242.54 155.565C1241.59 155.585 1241.46 155.514 1239.77 154.082C1237.64 152.28 1236.42 151.402 1234.51 150.29L1233.07 149.458L1231.99 146.891C1230.33 142.979 1227.46 138.268 1225.73 136.62C1224.9 135.832 1224.38 135.887 1220.5 137.174L1217.16 138.284L1216.42 137.118C1215.26 135.307 1213.95 132.62 1213.33 130.813L1212.78 129.168L1212.84 123.423C1212.91 116.417 1212.64 111.532 1211.92 107.122C1211.29 103.282 1211.3 103.235 1212.86 102.166C1214.1 101.319 1216.14 100.657 1217.55 100.645C1218.96 100.633 1218.94 100.589 1218.13 102.358C1215.63 107.846 1215.8 116.709 1218.49 120.37C1221.32 124.231 1225.49 124.036 1227.41 119.954C1228.58 117.467 1229.42 112.683 1229.22 109.637C1229.12 108.056 1229.12 108.02 1229.41 108.712C1230.04 110.255 1230.1 110.286 1229.97 109.024C1229.89 108.348 1229.73 107.316 1229.59 106.732C1229.45 106.147 1229.42 105.535 1229.51 105.372C1229.98 104.525 1226.07 100.988 1222.93 99.4172C1221.97 98.9384 1221.15 98.5308 1221.12 98.511C1220.88 98.3801 1222.53 87.4415 1223.37 83.5462C1224.31 79.165 1224.06 79.4047 1226.56 80.5507ZM1263.17 80.7544C1266.93 81.0667 1266.51 80.5844 1266.68 84.8279C1266.81 88.1997 1267.24 93.9406 1267.53 96.2228L1267.66 97.1994H1265.61H1263.56L1262.43 94.669C1261.02 91.5425 1259.81 88.0578 1258.91 84.5559C1257.82 80.3196 1257.8 80.7863 1259.06 80.6985C1259.65 80.6569 1260.27 80.6074 1260.44 80.5883C1260.61 80.5692 1261.84 80.644 1263.17 80.7544ZM1258.07 82.7765C1258.85 86.4691 1261.04 92.8443 1262.64 96.0376C1263.25 97.2609 1263.42 97.1322 1260.76 97.4041C1258.74 97.6101 1256.27 98.0371 1255.23 98.3599C1254.75 98.5092 1254.85 91.9438 1255.43 85.1726C1255.81 80.7344 1255.69 81.1417 1256.7 80.9612C1257.68 80.785 1257.65 80.7468 1258.07 82.7765ZM1216.85 83.8363C1217.03 86.5412 1217.74 92.0519 1218.33 95.2352C1218.59 96.699 1218.79 97.9084 1218.77 97.9228C1218.74 97.937 1217.85 98.099 1216.77 98.2824C1215.34 98.5279 1214.41 98.8336 1213.24 99.4409C1212.16 99.9986 1211.65 100.175 1211.65 99.9859C1211.65 97.6716 1213.63 89.2804 1215.25 84.702C1216.56 81.0208 1216.66 80.967 1216.85 83.8363ZM1269.97 90.7333C1271.93 95.4903 1275.44 100.532 1279.68 104.68C1281.3 106.264 1281.76 106.835 1281.76 107.267C1281.76 108.2 1281.54 108.126 1280.56 106.858C1278.44 104.128 1273.29 101.024 1269.33 100.091L1268.28 99.8438L1268.15 98.6757C1267.67 94.6357 1267.19 88.3306 1267.1 85.0698L1266.99 81.2665L1268.1 85.0797C1268.71 87.1769 1269.55 89.721 1269.97 90.7333ZM1332.73 93.7044C1334.16 99.924 1335.97 104.926 1340.03 113.955C1342.7 119.89 1342.66 119.461 1340.48 118.281C1336.29 116.014 1332.4 112.57 1327.92 107.17L1327.24 106.348L1327.87 107.301C1328.63 108.463 1329.92 109.926 1332.92 113.029L1335.21 115.394L1335.69 117.655C1337.11 124.209 1335.45 131.199 1330.84 138.156C1329.57 140.071 1325.02 145.05 1325.34 144.176C1327.22 139.012 1327.51 137.314 1327.23 133.151C1326.97 129.326 1325.43 122.172 1324.59 120.873C1324.41 120.585 1324.39 120.595 1324.51 120.945C1324.59 121.171 1324.96 122.592 1325.35 124.103L1326.05 126.851L1325.44 129.886C1323.8 138.006 1320.28 144.138 1314.87 148.298L1313.36 149.453L1311.82 148.92C1310.97 148.626 1309.36 148.229 1308.24 148.037L1306.2 147.687L1307.17 146.619C1308 145.711 1309.85 142.593 1309.85 142.107C1309.85 142.021 1309.38 142.729 1308.81 143.68C1308.25 144.631 1307.3 145.895 1306.72 146.489L1305.66 147.568H1303.01C1301.56 147.568 1299.4 147.712 1298.22 147.888C1295.71 148.261 1295.66 148.244 1296.47 147.218C1304.78 136.674 1309.1 121.822 1310.79 98.0367C1310.92 96.1978 1310.97 96.0257 1311.83 94.6752C1312.33 93.8923 1313.08 92.5673 1313.49 91.7306C1314.54 89.6075 1314.64 89.7512 1314.51 93.1905C1314.45 94.83 1314.47 96.1715 1314.55 96.1715C1314.86 96.1715 1317.68 91.6107 1318.69 89.4798C1319.27 88.2416 1319.78 87.1962 1319.81 87.1567C1319.84 87.1173 1320.9 88.0194 1322.17 89.1612C1323.43 90.303 1324.53 91.2374 1324.61 91.2374C1324.69 91.2374 1324.86 90.0142 1325 88.5192C1325.25 85.7386 1325.78 83.287 1326.07 83.5738C1326.39 83.899 1327.33 86.6613 1327.66 88.2564C1327.84 89.161 1328.08 89.9011 1328.19 89.9011C1328.3 89.9011 1328.89 88.3746 1329.5 86.5089L1330.62 83.1168L1331.31 86.8173C1331.69 88.8526 1332.33 91.9518 1332.73 93.7044ZM1201.76 84.3476C1202.41 84.4697 1202.42 84.4905 1202.42 85.5931V86.7145L1201.55 86.7036C1200.28 86.6876 1195.47 86.1781 1195.33 86.0458C1195.23 85.9399 1195.72 84.0312 1195.95 83.6608C1196.04 83.5177 1199.5 83.9274 1201.76 84.3476ZM1200.44 92.7067C1203.37 92.9744 1203.34 92.9505 1203.56 94.6534L1203.7 95.6735L1200.24 95.3976C1195.89 95.0506 1196.19 95.1682 1196.36 93.8668C1196.58 92.2407 1196.27 92.3278 1200.44 92.7067ZM1223.1 96.9072C1225.16 97.5158 1225.2 97.5378 1226.96 98.8768C1228.24 99.8424 1228.3 99.8669 1227.64 99.1633C1226.19 97.6029 1223.69 96.3614 1222.06 96.3879C1221.56 96.3962 1221.83 96.5306 1223.1 96.9072ZM1267.69 98.0474C1268.02 99.681 1267.94 99.815 1266.75 99.6446C1266.15 99.5599 1265.51 99.4841 1265.32 99.4758C1265.02 99.4631 1263.93 97.9438 1263.93 97.5411C1263.93 97.4662 1264.75 97.405 1265.75 97.405H1267.57L1267.69 98.0474ZM1263.99 98.5215L1264.5 99.4322L1263.75 99.5408C1263.34 99.6004 1262.5 99.7073 1261.88 99.7785C1260.26 99.9641 1257.74 100.626 1256.4 101.218C1255.02 101.83 1255.08 101.876 1254.96 100.105L1254.85 98.6786L1255.96 98.4586C1257.1 98.2308 1259.26 97.8792 1260.34 97.7475C1260.68 97.7061 1261.52 97.6582 1262.22 97.6414L1263.48 97.6106L1263.99 98.5215ZM1212.05 101.054C1212.05 101.139 1211.91 101.44 1211.75 101.722L1211.46 102.236L1211.45 101.705C1211.45 101.413 1211.51 101.112 1211.58 101.037C1211.77 100.852 1212.06 100.863 1212.05 101.054ZM1221.35 101.436C1223.84 102.268 1226.57 104.253 1227.93 106.224C1229.62 108.66 1228.81 117.351 1226.59 120.714C1223.89 124.798 1218.87 122.655 1217.24 116.73C1216.23 113.01 1216.93 105.495 1218.6 102.169C1219.34 100.708 1219.24 100.733 1221.35 101.436ZM1269.48 103.164C1271.66 103.629 1273.48 104.444 1275.55 105.871C1277.43 107.172 1280.68 110.382 1280.87 111.123C1281.14 112.201 1278.39 119.273 1275.86 124.015C1274.86 125.881 1274.09 126.197 1270.18 126.335C1264.65 126.529 1261.14 124.89 1259.37 121.293C1257.7 117.885 1258.61 110.226 1261.22 105.755C1263.13 102.495 1264.44 102.084 1269.48 103.164ZM1208.73 118.889C1209.19 119.793 1210.17 121.536 1210.91 122.762C1212.21 124.9 1212.26 125.045 1212.26 126.317C1212.26 129.275 1213.39 132.724 1215.53 136.309C1216.22 137.451 1216.75 138.406 1216.72 138.43C1216.49 138.636 1212.66 140.087 1212.58 140.002C1212.52 139.942 1212.46 139.191 1212.45 138.334C1212.43 136.826 1212.42 136.805 1212.24 137.7C1212.13 138.209 1212.1 138.995 1212.16 139.447L1212.27 140.27L1210.13 141.452C1207.57 142.86 1207.86 142.826 1207.33 141.774C1205.96 139.08 1205.32 136.321 1205.11 132.149L1204.97 129.168L1204.8 131.254L1204.63 133.34L1203.27 134.671C1199.91 137.959 1196.31 139.988 1191.2 141.476C1189.89 141.858 1189.89 141.869 1191.12 140.508C1194.13 137.176 1198.04 130.07 1199.93 124.525L1200.81 121.938L1202.75 123.225C1205.25 124.879 1210.42 127.092 1210.42 126.51C1210.42 126.433 1210.13 125.704 1209.78 124.891C1208.52 121.941 1207.75 119.55 1207.35 117.304C1206.83 114.444 1206.85 114.23 1207.43 115.908C1207.69 116.643 1208.27 117.984 1208.73 118.889ZM1232.25 126.111C1232.17 126.435 1232.08 126.821 1232.03 126.969C1231.99 127.116 1232.03 127.184 1232.14 127.12C1232.36 126.98 1232.64 125.791 1232.49 125.634C1232.43 125.572 1232.32 125.787 1232.25 126.111ZM1225.47 136.888C1226.52 137.81 1229.51 142.407 1230.69 144.895C1231.73 147.092 1232.61 149.213 1232.48 149.213C1232.44 149.213 1231.82 148.946 1231.1 148.621C1230.38 148.296 1228.97 147.764 1227.96 147.439C1226.27 146.893 1226.08 146.775 1225.43 145.872C1224.61 144.73 1224.1 144.536 1224.86 145.654C1225.52 146.627 1225.54 146.62 1223.56 146.146C1222.64 145.925 1220.99 145.638 1219.89 145.508C1218.8 145.378 1217.44 145.209 1216.88 145.132L1215.85 144.993L1217.08 144.508C1217.76 144.241 1219.14 143.715 1220.16 143.339C1221.17 142.962 1221.86 142.65 1221.68 142.644C1221.23 142.63 1219.14 143.331 1216.68 144.322C1214.69 145.12 1214.57 145.143 1212.88 145.027C1211.33 144.921 1208.18 145.084 1205.19 145.425L1204.17 145.542L1205.7 144.527C1210.63 141.277 1215.83 138.907 1222.52 136.876C1224.92 136.146 1224.62 136.145 1225.47 136.888ZM1231.1 137.09C1231.39 137.338 1231.87 137.489 1232.33 137.48C1233.06 137.466 1233.05 137.459 1231.95 137.074C1230.55 136.589 1230.5 136.59 1231.1 137.09ZM1235.86 137.476C1235.67 137.598 1235.9 137.685 1236.58 137.747C1237.13 137.797 1238.46 138.086 1239.53 138.39C1242.56 139.249 1246.74 139.095 1247.65 138.092C1248.01 137.687 1247.88 137.289 1247.39 137.289C1247.13 137.289 1247.11 137.346 1247.32 137.593C1247.64 137.978 1247.08 138.214 1245.11 138.534C1243.37 138.817 1241.75 138.648 1238.97 137.89C1236.58 137.241 1236.29 137.203 1235.86 137.476ZM1294.5 141.843C1294.16 143.126 1293.53 145.191 1293.1 146.433L1292.32 148.689L1288.94 149.773C1287.08 150.369 1285.48 150.856 1285.39 150.857C1285.31 150.857 1285.94 150.24 1286.8 149.485C1289.64 147.004 1294.88 140.514 1294.88 139.484C1294.88 139.369 1294.94 139.329 1295 139.393C1295.06 139.458 1294.84 140.56 1294.5 141.843ZM1196.61 143.508C1197.05 143.988 1197.67 144.983 1197.97 145.718C1202.8 157.351 1202.71 157.02 1200.99 157.017C1198.65 157.013 1196.94 154.903 1191.59 145.476C1190.84 144.145 1190.74 144.294 1193.07 143.33C1195.28 142.415 1195.63 142.432 1196.61 143.508ZM1201.16 142.927C1203.07 143.915 1203.51 150.718 1201.86 153.608C1201.7 153.875 1201.51 153.461 1199.73 149.036C1198.83 146.815 1197.87 144.607 1197.59 144.128C1197.31 143.65 1197.08 143.187 1197.08 143.1C1197.06 142.618 1200.3 142.48 1201.16 142.927ZM1190.12 143.98C1190.29 144.129 1190.72 144.742 1191.08 145.344C1191.43 145.945 1192.93 148.467 1194.41 150.948C1197.48 156.084 1197.54 156.229 1196.88 156.933C1196.18 157.679 1193.83 157.649 1194.44 156.903C1194.8 156.471 1194.44 156.045 1191.01 152.872C1187.3 149.436 1185.22 147.658 1184.11 146.971C1183.18 146.394 1183.06 146.508 1186.5 144.707C1188.97 143.415 1189.38 143.332 1190.12 143.98ZM1262.08 146.417C1263.72 147.505 1268.02 151.101 1269.23 152.408C1273.91 157.426 1275.86 163.693 1279.72 186.218C1280.38 190.119 1280.99 193.634 1281.06 194.03L1281.18 194.75L1280.57 193.927C1278.92 191.684 1277.16 190.701 1274.59 190.58C1272.43 190.478 1270.86 191.181 1267.35 193.838C1266.13 194.759 1265.1 195.479 1265.07 195.439C1265.03 195.399 1264.77 194.989 1264.49 194.529C1263.75 193.349 1262.88 192.519 1261.08 191.307C1257.23 188.711 1256.34 187.471 1255.73 183.854C1255.5 182.497 1255.17 180.891 1254.99 180.285C1254.82 179.679 1254.72 179.141 1254.77 179.088C1254.82 179.036 1254.93 179.257 1255 179.58C1255.16 180.309 1256.05 181.685 1257.07 182.763C1257.86 183.6 1258.57 183.735 1259.65 183.256C1259.91 183.143 1260.16 183.349 1260.66 184.086C1261.81 185.756 1264.29 187.951 1266.69 189.413C1267.56 189.94 1267.13 189.54 1265.57 188.366C1263.31 186.671 1260.11 183.335 1260.47 183.056C1260.51 183.023 1261.42 182.695 1262.49 182.326C1263.56 181.957 1264.58 181.564 1264.75 181.454C1264.98 181.299 1264.96 181.283 1264.64 181.385C1259.79 182.952 1258.28 183.315 1257.84 183.022C1256.42 182.091 1254.22 177.789 1255.16 177.789C1255.96 177.788 1257.99 176.489 1259.22 175.19C1261.35 172.944 1261.51 172.592 1259.51 174.54C1256.64 177.337 1254.37 178.168 1253.87 176.607C1253.74 176.183 1253.36 175.132 1253.03 174.272L1252.44 172.709L1253.08 171.189C1254.19 168.568 1256.21 165.282 1258.07 163.093C1259 161.989 1259.03 161.926 1258.36 162.476C1256.87 163.689 1254.01 168.024 1252.84 170.847C1252.56 171.495 1252.3 172.026 1252.24 172.026C1252.18 172.026 1251.37 170.49 1250.44 168.613L1248.74 165.2L1250.02 163.22C1251.94 160.22 1253.92 157.459 1255.03 156.22C1255.59 155.593 1255.84 155.211 1255.59 155.344C1255.35 155.474 1254.72 156.082 1254.2 156.694C1253.28 157.771 1253.22 157.802 1252.41 157.693C1251.8 157.611 1251.6 157.645 1251.71 157.816C1251.79 157.946 1252.12 158.053 1252.44 158.053C1253.02 158.053 1253 158.104 1250.76 161.438L1248.48 164.823L1247.8 163.699C1247.21 162.719 1245.5 160.162 1244.69 159.073C1244.4 158.667 1244.6 156.54 1245.2 153.866C1245.76 151.375 1247.24 150.304 1253.54 147.84C1259.19 145.632 1260.56 145.405 1262.08 146.417ZM1183.4 146.976C1185.03 147.802 1194.22 156.032 1194.22 156.661C1194.22 157.024 1192.46 157.633 1191.39 157.637C1190.09 157.642 1189.79 157.493 1186.31 155.162C1182.74 152.767 1179.28 151.066 1176.94 150.557L1176.36 150.432L1176.92 149.771C1177.85 148.656 1180.15 146.748 1180.8 146.552C1181.55 146.327 1182.39 146.464 1183.4 146.976ZM1271.78 147.834C1268.81 151.98 1269.12 151.701 1268.29 150.953L1267.72 150.432L1268.32 149.976C1268.64 149.726 1269.66 148.903 1270.57 148.149C1272.59 146.479 1272.79 146.427 1271.78 147.834ZM1178.4 151.398C1179.22 151.668 1180.4 152.144 1181.01 152.455L1182.13 153.021L1180.32 154.083C1179.32 154.667 1177.73 155.738 1176.78 156.463L1175.06 157.782L1172.39 158.036C1167.54 158.498 1163.02 159.67 1160.07 161.231C1158.5 162.065 1158.59 162.044 1161.53 160.92C1165.48 159.408 1168.46 158.739 1172.9 158.365L1174.44 158.235L1172.69 159.875C1168.18 164.088 1164.16 169.392 1161.4 174.779L1159.84 177.834L1159.17 176.226C1158.27 174.048 1157.58 171.197 1157.24 168.229L1156.96 165.762L1156.94 167.329C1156.89 170.131 1157.79 174.102 1159.14 177.058L1159.7 178.281L1159 180.142C1158.61 181.166 1158.03 183.067 1157.7 184.368C1157.38 185.668 1157.09 186.81 1157.06 186.906C1156.96 187.207 1153.91 181.088 1152.91 178.609C1151.03 173.921 1150.49 170.815 1150.47 164.734C1150.45 157.962 1150.98 156.063 1153.13 155.198C1155.88 154.094 1166.59 151.728 1171.37 151.173C1176.05 150.628 1176.05 150.628 1178.4 151.398ZM1244.32 156.973C1244.15 158.497 1244.22 158.484 1243.05 157.204C1241.91 155.974 1241.97 155.832 1243.58 155.806L1244.45 155.791L1244.32 156.973ZM1223.03 157.769C1217.74 159.116 1216.95 162.53 1220.93 166.803C1225.98 172.232 1236.51 176.755 1240.29 175.124C1242.38 174.22 1244.66 171.353 1244.65 169.623C1244.65 166.481 1236.67 159.99 1230.68 158.241C1229.21 157.812 1224.09 157.497 1223.03 157.769ZM1186.74 167.575C1179.15 170.131 1171.96 178.577 1173.08 183.613C1174.33 189.214 1181.15 189.355 1188.35 183.93C1192.05 181.147 1193.64 178.889 1194.64 175.014C1195.94 169.99 1191.63 165.929 1186.74 167.575ZM1248.96 176.144C1248.24 176.374 1250.42 176.384 1251.52 176.156C1252.26 176.004 1252.19 175.986 1250.91 175.983C1250.12 175.981 1249.24 176.054 1248.96 176.144ZM1215.25 179C1214.6 179.288 1214.51 179.386 1214.8 179.499C1215.44 179.744 1216.09 179.651 1216.44 179.263C1217.11 178.514 1216.6 178.401 1215.25 179ZM1249.37 180.119C1249.53 180.282 1251.42 181.002 1252.64 181.365C1253.26 181.548 1253.67 181.615 1253.57 181.513C1253.22 181.191 1249.06 179.808 1249.37 180.119ZM1225.11 182.313C1222.3 184.102 1219.24 184.754 1217.88 183.857C1217.35 183.511 1217.33 183.515 1216.9 184.015C1214.71 186.597 1210.67 188.325 1208.92 187.427C1208.49 187.206 1208.48 187.211 1208.84 187.582C1209.12 187.882 1209.5 187.965 1210.58 187.965C1212.31 187.964 1213.58 187.358 1215.81 185.487L1217.37 184.173L1218.56 184.395C1220.88 184.828 1223.63 184.02 1225.59 182.331C1226.51 181.538 1226.34 181.532 1225.11 182.313ZM1257.66 189.058C1257.99 189.436 1259.19 190.401 1260.32 191.204C1262.88 193.011 1263.37 193.455 1264.17 194.705L1264.8 195.697L1262.88 197.472C1261.82 198.449 1259.03 201.15 1256.67 203.475C1254.32 205.8 1252.46 207.517 1252.54 207.29C1254.86 200.964 1256.13 194.705 1256.14 189.552L1256.15 187.143L1256.6 187.758C1256.85 188.096 1257.33 188.681 1257.66 189.058ZM1175.77 196.068C1173.5 196.73 1171.01 197.748 1168.23 199.156C1165.27 200.655 1165.08 200.96 1167.88 199.714C1169.23 199.113 1171.82 198.044 1173.62 197.339C1175.42 196.634 1177.22 195.93 1177.62 195.774C1178.78 195.313 1177.87 195.46 1175.77 196.068ZM1176.18 201.655C1173.84 203.508 1169.19 207.945 1168.76 208.724C1168.45 209.287 1170.34 207.699 1172.9 205.236C1174.09 204.101 1175.89 202.412 1176.9 201.484C1179.29 199.296 1179.09 199.344 1176.18 201.655ZM1306.02 201.645C1305.04 201.841 1304.08 202.304 1301.65 203.752C1297.15 206.433 1284.81 214.819 1285.18 214.942C1285.29 214.981 1287.55 213.522 1290.19 211.7C1296.06 207.649 1301.5 204.162 1303.95 202.895L1305.78 201.945L1307.97 201.96C1312.27 201.988 1314.44 203.035 1328.25 211.758C1331.1 213.557 1333.54 214.994 1333.67 214.951C1334.03 214.83 1318.56 205.198 1315.59 203.693C1311.98 201.867 1308.58 201.138 1306.02 201.645ZM1235.84 211.208C1231.89 212.23 1230.04 212.867 1227.99 213.921C1225.47 215.211 1225.94 215.287 1228.61 214.023C1230.85 212.964 1234.52 211.812 1237.92 211.098C1240.57 210.542 1241.28 210.921 1243.04 213.839C1243.42 214.471 1243.85 214.991 1243.98 214.994C1244.39 215.004 1242.66 212.435 1241.58 211.418C1240.31 210.228 1239.72 210.206 1235.84 211.208Z" stroke="#B5DBFF"/>
<path fill-rule="evenodd" clip-rule="evenodd" d="M221.866 35.7961C221.113 35.6708 223.348 36.3326 226.833 37.2665C231.889 38.6215 233.656 39.1831 235.582 40.0461C236.909 40.641 238.052 41.0945 238.122 41.054C238.26 40.974 236.002 39.9719 233.088 38.8205C231.167 38.0612 224.208 36.1858 221.866 35.7961ZM217.267 35.1763C216.37 35.0999 215.885 35.1103 216.188 35.1996C216.492 35.2888 217.576 35.4453 218.597 35.5476C219.618 35.6497 220.103 35.6393 219.675 35.5244C219.247 35.4097 218.163 35.253 217.267 35.1763ZM214.747 35.0216C214.883 35.1245 215.133 35.1915 215.303 35.1705C215.472 35.1497 215.36 35.0656 215.055 34.9837C214.749 34.9018 214.611 34.9189 214.747 35.0216ZM240.256 42.3041C246.218 45.6991 250.846 49.3524 254.957 53.9077C255.791 54.8314 256.494 55.5102 256.519 55.4164C256.544 55.3224 256.098 54.7573 255.527 54.1603C254.673 53.2679 254.564 53.0561 254.912 52.9677C255.964 52.6997 260.364 52.8297 264.249 53.2437C266.193 53.451 266.199 53.4499 264.677 53.1573C262.827 52.8015 259.386 52.5752 256.416 52.614L254.243 52.6422L251.679 50.2846C247.727 46.6514 242.317 42.8643 239.255 41.5875C238.726 41.3667 239.176 41.6891 240.256 42.3041ZM212.247 34.7908C210.852 34.8198 211.69 35.0491 213.246 35.064C213.921 35.0705 214.195 35.0092 213.88 34.9219C213.575 34.8375 212.84 34.7785 212.247 34.7908ZM229.515 40.56C231.034 44.9858 231.334 48.6194 230.565 53.2853L230.343 54.631L229.799 54.1034C224.631 49.0974 220.329 47.0668 216.542 47.8468C213.049 48.566 204.559 52.1677 200.222 54.7699C198.503 55.8014 198.677 55.7329 201.124 54.4149C207.657 50.8953 215.554 47.9005 218.325 47.8917C221.151 47.8827 223.509 49.1085 227.874 52.8538L230.47 55.081L230.86 53.0947C231.442 50.1335 231.385 47.6861 230.651 44.081C230.29 42.3093 230.06 40.8775 230.141 40.8991C230.362 40.9584 233.22 45.8008 233.574 46.7152C233.757 47.19 233.839 47.2842 233.774 46.9476C233.545 45.7477 229.853 39.6277 229.262 39.4695C229.188 39.4496 229.302 39.9403 229.515 40.56ZM209.061 34.6764C200.574 34.8635 193.191 35.8145 186.685 37.5583L183.961 38.2883L182.535 37.3354C175.09 32.3642 164.486 29.2557 154.111 29.0029C150.342 28.9112 148.733 29.0024 148.379 29.328C148.081 29.6019 147.589 31.5253 147.565 32.5065C147.554 32.9631 147.721 32.5398 148.032 31.326C148.601 29.0993 148.443 29.1841 152.06 29.1746C163.345 29.1452 175.393 32.5218 182.738 37.7724L183.828 38.5514L187.225 37.6749C193.288 36.1106 200.526 35.1087 206.593 34.9941C208.174 34.9643 209.845 34.9317 210.306 34.9213C210.767 34.911 210.946 34.8458 210.702 34.7762C210.459 34.7067 209.72 34.6617 209.061 34.6764ZM267.51 53.5247C266.817 53.4196 268.561 53.9146 271.385 54.6247C274.209 55.3347 276.628 55.9081 276.762 55.899C277.186 55.8699 268.824 53.724 267.51 53.5247ZM277.523 56.3933C277.845 56.5345 278.395 56.6818 278.745 56.7209C279.095 56.76 278.831 56.6446 278.159 56.4644C277.486 56.2842 277.2 56.2522 277.523 56.3933ZM280.389 57.479C281.852 58.1266 283.127 58.4478 281.84 57.8445C281.316 57.5991 280.535 57.3102 280.106 57.2029C279.466 57.0431 279.518 57.0934 280.389 57.479ZM283.605 58.8142C284.062 59.0649 285.425 59.7691 286.634 60.3787C288.231 61.184 288.934 61.6631 289.203 62.1303C289.434 62.5324 289.603 62.6621 289.653 62.4765C289.826 61.8318 286.874 59.9624 283.759 58.7435L282.774 58.3582L283.605 58.8142ZM221.962 43.4487C224.878 46.2307 227.319 49.3188 228.636 51.8929C229.151 52.8983 229.291 53.0843 229.012 52.3928C228.403 50.8846 226.616 48.051 225.351 46.5882C223.925 44.9401 221.27 42.3429 220.919 42.2528C220.761 42.2125 221.231 42.7506 221.962 43.4487ZM247.466 50.0769C245.401 50.098 243.556 50.2555 243.641 50.4034C243.679 50.469 244.3 50.4715 245.022 50.4086C247.542 50.1901 247.508 50.2991 244.812 51.0793C241.514 52.0341 239.191 52.9848 236.846 54.3398C235.246 55.2643 232.65 57.3507 232.527 57.812C232.478 57.9916 235.976 56.9621 236.536 56.6319C236.857 56.4429 235.144 56.8934 234.022 57.2931C232.972 57.6676 233.019 57.4876 234.258 56.3995C236.693 54.261 242.241 51.8365 247.231 50.7301C249.997 50.1171 250.02 50.0506 247.466 50.0769ZM225.099 44.626C225.144 44.7046 225.669 45.1453 226.267 45.6054C227.763 46.7579 229.724 48.9997 230.294 50.2105C230.555 50.7648 230.718 50.9754 230.657 50.679C230.453 49.6965 228.834 47.4888 227.431 46.2795C226.142 45.1688 224.914 44.2979 225.099 44.626ZM241.436 50.5348C240.581 50.6441 239.91 50.7812 239.944 50.8396C240.002 50.941 243.044 50.6207 243.285 50.4878C243.566 50.3327 242.876 50.3504 241.436 50.5348ZM284.792 62.1655C285.238 62.3365 285.988 62.5376 286.459 62.6123C286.931 62.6872 286.566 62.5472 285.649 62.3015C284.732 62.0558 284.347 61.9948 284.792 62.1655ZM288.474 64.8978C286.411 69.0387 281.859 75.7831 278.291 79.9867C276.418 82.194 272.74 85.9905 272.529 85.934C272.379 85.8939 270.778 84.2285 269.039 82.3027L267.436 80.5286L266.858 77.706C266.11 74.057 265.168 70.935 263.886 67.8614L262.858 65.396L263.916 64.859C268.519 62.5229 275.408 61.3188 281.413 61.8007C283.273 61.9499 283.559 61.9363 282.492 61.7491C277.489 60.8713 270.111 61.8828 264.969 64.1518L262.638 65.1803L262.376 64.5485C262.233 64.2008 262.091 63.9969 262.062 64.0953C262.032 64.1935 262.425 65.1586 262.935 66.24C264.638 69.8564 267.421 79.2557 266.881 79.5685C266.682 79.6834 263.432 75.5396 259.42 70.0557C257.61 67.583 255.503 64.8439 254.737 63.9688C253.222 62.2403 253.472 62.6157 255.997 65.8599C256.901 67.0218 258.999 69.8405 260.659 72.1239C268.183 82.4736 273.823 88.3893 279.008 91.372L280.726 92.3601L279.64 92.2235C279.043 92.1484 278.14 91.9881 277.634 91.8677C277.126 91.7468 276.899 91.7532 277.127 91.882C277.694 92.2014 282.658 92.9402 282.873 92.7372C282.968 92.6471 282.456 92.4155 281.735 92.2223C279.815 91.7078 277.455 90.2872 274.978 88.1536C273.776 87.1186 272.806 86.2242 272.821 86.1658C272.837 86.1074 273.51 85.4118 274.316 84.6202C277.744 81.2555 281.267 76.9313 284.218 72.4665C286.55 68.9387 289.223 64.286 289.303 63.6169C289.336 63.3405 288.963 63.917 288.474 64.8978ZM247.231 52.8509C246.466 53.2937 246.517 54.2928 247.372 55.5771C248.684 57.5471 251.824 59.445 252.72 58.8088C254.363 57.6421 249.003 51.8245 247.231 52.8509ZM237.613 51.2311C236.975 51.4378 235.872 51.9753 235.162 52.4255L233.871 53.2437L235.403 52.4153C236.245 51.9596 237.453 51.4516 238.087 51.2864C238.721 51.1212 239.135 50.9566 239.007 50.9205C238.878 50.8844 238.251 51.0242 237.613 51.2311ZM204.138 42.7426C202.653 42.9096 200.908 43.544 199.6 44.3928C195.729 46.9037 199.953 48.797 204.921 46.7783C208.806 45.2004 208.239 42.2814 204.138 42.7426ZM250.229 55.3258C251.912 56.7665 253.043 58.8242 251.711 58.0208C249.899 56.9281 247.372 53.9057 248.508 54.1902C248.815 54.2672 249.59 54.778 250.229 55.3258ZM206.354 44.3337C206.226 44.8135 203.456 46.1464 201.942 46.4576C198.759 47.1113 198.008 46.1139 200.648 44.74C202.721 43.6607 206.609 43.3841 206.354 44.3337ZM153.372 31.9659C153.753 32.1209 154.453 32.3092 154.928 32.3846C155.402 32.4598 155.09 32.3332 154.234 32.1028C153.378 31.8725 152.99 31.8108 153.372 31.9659ZM151.656 31.738C151.857 31.8525 152.158 31.9291 152.325 31.9084C152.492 31.8877 152.327 31.7941 151.959 31.7003C151.591 31.6065 151.455 31.6234 151.656 31.738ZM157.582 33.5083C162.367 35.6798 169.057 40.2153 173.687 44.4262C176.706 47.1729 176.737 47.218 175.948 47.7086C175.224 48.1586 175.068 48.5608 175.342 49.2716C175.514 49.7165 175.469 49.8338 174.986 50.1958C174.527 50.5406 174.391 50.8583 174.183 52.0775C174.046 52.8842 173.885 53.5313 173.825 53.5153C173.765 53.4993 173.188 53.1294 172.542 52.6931C171.896 52.2571 171.33 51.9221 171.284 51.9489C171.168 52.0159 173.697 56.3421 174.677 57.7537C176.156 59.8848 178.459 62.5745 180.458 64.5065C181.551 65.563 182.475 66.462 182.511 66.5049C182.547 66.5476 181.736 67.5186 180.709 68.6625C177.332 72.4238 173.775 77.5888 171.388 82.198C170.191 84.5078 168.797 85.6062 167.501 85.2591C167.044 85.1367 166.422 85.2453 165.679 85.5769C165.058 85.8542 164.196 86.1559 163.764 86.2475C162.885 86.4337 162.077 87.2674 161.527 88.5548C161.177 89.3759 161.187 89.3706 161.756 88.4303C162.513 87.1806 163.232 86.539 163.957 86.4644C164.272 86.4322 164.981 86.1824 165.532 85.9093C166.164 85.5964 166.936 85.4437 167.621 85.4962C168.444 85.5595 168.914 85.4322 169.557 84.9726C174.709 81.2887 182.542 106.363 181.597 123.513C181.459 126.022 180.364 130.854 179.447 133.005C179.072 133.882 179.063 133.966 179.397 133.469C180.163 132.328 181.336 128.181 181.622 125.606C181.769 124.277 181.923 123.17 181.963 123.147C182.004 123.123 182.811 124.011 183.758 125.119C185.406 127.049 190.527 131.794 191.139 131.958C191.317 132.005 191.365 132.324 191.263 132.767C191.109 133.426 191.138 133.406 191.549 132.567C192.272 131.089 193.064 130.725 194.431 131.244C196.878 132.173 199.452 135.288 200.231 138.265C200.529 139.404 200.505 139.667 199.914 141.738L199.274 143.979L197.132 144.931C191.515 147.425 190.132 146.618 190.222 140.899C190.231 140.305 190.186 139.85 190.121 139.887C190.057 139.924 189.996 140.451 189.987 141.058L189.969 142.161L188.658 142.979C186.185 144.523 186.171 145.221 188.537 148.618C190.519 151.462 192.383 153.548 193.119 153.746C194.505 154.117 197.036 151.101 199.451 146.198L200.407 144.256L201.329 144.414C202.079 144.543 202.016 144.502 200.992 144.194C199.526 143.752 199.424 143.248 200.341 140.989C200.794 139.875 200.857 139.816 201.439 139.972C202.628 140.291 203.338 140.949 203.193 141.6C203.09 142.065 203.111 142.105 203.286 141.781C203.905 140.634 208.145 138.844 210.962 138.542C211.801 138.452 212.173 138.352 211.789 138.32C211.404 138.288 210.125 138.459 208.946 138.701L206.803 139.14L203.505 138.018L200.206 136.895L199.184 135.266C196.907 131.634 193.11 129.632 191.948 131.452C191.577 132.033 191.277 131.892 189.237 130.174C186.965 128.261 185.021 126.308 183.253 124.164C181.961 122.596 181.874 122.41 181.906 121.274C182.304 107.192 176.474 86.748 171.411 84.4685C170.51 84.0626 170.407 84.4118 172.571 80.5514C174.829 76.5243 177.633 72.5552 180.62 69.1576L182.936 66.5224L182.049 65.7578C180.576 64.4887 178.067 61.8224 176.675 60.0467C175.174 58.1318 171.793 52.9714 171.972 52.8679C172.038 52.8301 172.934 53.3059 173.963 53.9254C174.993 54.5449 175.963 55.0439 176.121 55.0345C176.278 55.0248 175.887 54.7447 175.251 54.412L174.096 53.8067L174.368 52.2775C174.593 51.0159 174.739 50.6674 175.203 50.2855C175.725 49.8554 175.751 49.7741 175.566 49.1378C175.378 48.4904 175.402 48.4313 175.999 48.0605C176.897 47.5018 176.885 47.2501 175.906 46.1833C171.977 41.9037 161.674 34.7513 157.164 33.1721C155.848 32.7113 155.878 32.735 157.582 33.5083ZM249.629 58.8991C249.888 59.1562 250.2 59.3933 250.322 59.426C250.444 59.4588 250.332 59.2753 250.074 59.0182C249.815 58.7612 249.503 58.5241 249.381 58.4913C249.259 58.4586 249.37 58.6421 249.629 58.8991ZM237.92 56.1361C237.396 56.256 236.955 56.4037 236.938 56.4645C236.922 56.5254 237.364 56.4777 237.92 56.3587C238.476 56.2397 238.944 56.094 238.959 56.0354C238.998 55.8897 238.997 55.8897 237.92 56.1361ZM250.624 59.6313C250.608 59.6926 250.853 59.9787 251.169 60.267C251.485 60.5554 251.756 60.7412 251.773 60.6799C251.789 60.6187 251.544 60.3326 251.228 60.0442C250.912 59.7558 250.641 59.57 250.624 59.6313ZM252.211 61.2672C252.402 61.5324 252.732 61.9012 252.945 62.0871L253.331 62.4251L252.983 61.9431C252.792 61.6779 252.462 61.3091 252.25 61.1232L251.864 60.7853L252.211 61.2672ZM147.466 34.2714C146.535 40.8532 150.17 55.5764 155.602 67.2305C156.343 68.8187 156.374 68.9927 155.969 69.2552C154.944 69.9191 154.796 70.8246 155.508 72.0907L156.169 73.2661L155.33 75.486C154.868 76.7069 154.467 77.9429 154.439 78.2327C154.411 78.5226 154.753 77.7164 155.2 76.4411C156.017 74.1116 156.419 73.3892 156.587 73.9495C156.634 74.1076 156.761 74.2606 156.869 74.2894C156.976 74.3183 156.657 73.6774 156.159 72.8651C155.072 71.0938 155.034 70.5169 155.946 69.6204L156.621 68.9565L155.387 66.1837C150.132 54.3713 147.637 44.4839 147.617 35.3867C147.615 34.0396 147.558 33.6227 147.466 34.2714ZM217.26 53.8217C216.757 54.0436 216.758 54.0484 217.301 53.9438C217.612 53.8838 217.879 53.7881 217.894 53.7313C217.94 53.5608 217.811 53.5791 217.26 53.8217ZM214.82 54.4941C211.383 55.6066 207.748 58.2887 204.714 61.9496C203.064 63.9402 199.958 68.5481 199.417 69.8071C199.215 70.2783 199.596 69.7892 200.263 68.7201C205.268 60.7078 210.403 55.8847 215.397 54.5061C216.437 54.2192 216.814 54.0472 216.555 53.9778C216.512 53.9665 215.732 54.1987 214.82 54.4941ZM239.892 61.7404C240.167 62.2653 240.969 65.1424 241.674 68.1338C244.635 80.6863 247.155 88.5486 249.774 93.3955C250.943 95.5596 252.363 97.4951 252.869 97.6141C253.037 97.6537 252.897 97.4255 252.557 97.1071C249.399 94.1484 246.219 85.58 242.152 69.0767C240.697 63.1719 240.1 61.2545 239.617 60.935C239.493 60.8531 239.616 61.2155 239.892 61.7404ZM249.928 65.7863C250.293 66.1359 250.692 66.4486 250.814 66.4813C250.936 66.5141 250.738 66.255 250.373 65.9055C250.008 65.5559 249.609 65.2432 249.487 65.2104C249.364 65.1777 249.563 65.4368 249.928 65.7863ZM251.381 66.9485C251.572 67.1658 252.313 68.0025 253.027 68.8079C255.912 72.0612 258.692 76.9218 260.471 81.8204C261.553 84.8009 261.787 85.3286 261.455 84.0415C260.085 78.7386 255.025 69.9567 251.712 67.132C251.339 66.8137 251.19 66.731 251.381 66.9485ZM196.62 57.0557L195.488 57.7673L196.668 57.1396C197.767 56.5558 197.987 56.4068 197.819 56.3617C197.783 56.352 197.243 56.6642 196.62 57.0557ZM222.936 65.3013C220.361 67.108 216.339 70.361 213.985 72.5417L212.165 74.2286L210.519 73.9225C209.613 73.7542 208.595 73.6541 208.255 73.6999C207.761 73.7665 207.846 73.8051 208.68 73.8924C210.66 74.0996 213.209 74.9472 214.16 75.7152C215.005 76.3973 215.035 76.4736 214.782 77.2921C214.57 77.9796 214.574 78.012 214.803 77.4528C214.961 77.0682 215.19 76.7801 215.312 76.8128C215.434 76.8456 215.491 76.7279 215.438 76.5514C215.385 76.375 215.428 75.9297 215.534 75.562L215.725 74.8934L215.464 75.4992C215.28 75.925 215.115 76.0418 214.909 75.8924C214.748 75.7751 214.115 75.3751 213.503 75.0033L212.388 74.3274L213.223 73.5509C216.035 70.9323 220.302 67.4312 223.302 65.28C224.336 64.539 225.134 63.9197 225.075 63.904C225.017 63.8883 224.054 64.5172 222.936 65.3013ZM188.045 58.2002C188.181 58.3031 188.431 58.3701 188.601 58.3491C188.77 58.3283 188.659 58.2442 188.353 58.1623C188.047 58.0804 187.909 58.0975 188.045 58.2002ZM177.018 55.5588C177.646 55.9181 179.647 56.5811 179.516 56.3867C179.477 56.3285 178.76 56.0385 177.922 55.7425C176.998 55.4158 176.642 55.3437 177.018 55.5588ZM186.094 57.9227C186.293 58.0362 186.643 58.13 186.872 58.1312C187.101 58.1326 186.938 58.0398 186.51 57.9251C186.082 57.8104 185.895 57.8095 186.094 57.9227ZM182.812 57.2758C182.949 57.3787 183.199 57.4457 183.368 57.4247C183.538 57.404 183.426 57.3198 183.12 57.2379C182.815 57.156 182.676 57.1731 182.812 57.2758ZM183.924 57.5736C184.06 57.6766 184.31 57.7436 184.48 57.7226C184.649 57.7018 184.538 57.6177 184.232 57.5358C183.926 57.4539 183.788 57.471 183.924 57.5736ZM234.831 72.6085C234.92 73.0265 235.106 73.6137 235.244 73.9133C235.381 74.2129 235.376 73.9967 235.233 73.4328C234.917 72.1888 234.603 71.5457 234.831 72.6085ZM172.705 56.2155C172.35 57.2594 170.325 60.6117 168.801 62.6782C168.356 63.2815 168.118 63.7015 168.273 63.6117C169.057 63.1575 172.756 57.1972 172.821 56.2839C172.855 55.8016 172.847 55.7967 172.705 56.2155ZM235.525 75.0069C236.043 77.4088 239.218 83.8437 241.369 86.853C242.576 88.5398 242.624 88.7304 241.839 88.7073C241.542 88.6985 242.246 88.9476 243.404 89.2611C244.866 89.6563 245.738 90.0123 246.254 90.4244C246.663 90.7508 246.964 90.9086 246.924 90.7743C246.813 90.4028 244.859 89.2679 243.877 89.0048C242.351 88.596 238.77 82.8716 236.695 77.5266C235.609 74.7272 235.339 74.148 235.525 75.0069ZM261.754 85.6744C261.82 85.9546 261.923 86.1972 261.984 86.2136C262.045 86.23 262.042 86.0141 261.977 85.7339C261.912 85.4537 261.808 85.2111 261.747 85.1947C261.686 85.1783 261.689 85.3941 261.754 85.6744ZM265.357 89.73C265.414 90.6567 265.346 92.6003 265.208 94.049C265.069 95.4977 265.032 96.4347 265.125 96.1312C265.218 95.8277 265.376 94.6585 265.477 93.533L265.659 91.4865L267.025 90.5563C267.776 90.0448 268.612 89.6409 268.883 89.6589C269.296 89.6868 269.285 89.663 268.817 89.51C268.389 89.3704 267.994 89.5337 267.113 90.2153C265.675 91.3286 265.65 91.3182 265.595 89.5696C265.57 88.7747 265.483 88.1065 265.402 88.0847C265.32 88.0629 265.3 88.8034 265.357 89.73ZM271.788 90.6899C272.663 90.9695 274.114 91.3582 275.011 91.5536C275.909 91.7488 275.193 91.5197 273.42 91.0446C271.647 90.5696 270.913 90.41 271.788 90.6899ZM211.181 75.2282C210.984 75.4383 210.874 75.6236 210.935 75.64C210.996 75.6564 211.207 75.4979 211.403 75.2878C211.6 75.0778 211.711 74.8925 211.65 74.8761C211.588 74.8597 211.378 75.0182 211.181 75.2282ZM198.263 72.0056C198.18 72.312 198.197 72.451 198.3 72.3142C198.403 72.1776 198.47 71.9269 198.449 71.7571C198.429 71.5875 198.345 71.6992 198.263 72.0056ZM197.66 73.3967C197.566 73.7656 197.583 73.9024 197.698 73.7007C197.812 73.499 197.889 73.1972 197.868 73.03C197.848 72.8628 197.754 73.0278 197.66 73.3967ZM213.546 80.3166C213.215 81.2331 212.383 84.0825 211.695 86.6483L210.445 91.3136L209.349 89.848C208.134 88.2247 206.897 86.8712 206.721 86.9731C206.658 87.0095 207.071 87.5198 207.64 88.107L208.673 89.1746L208.07 89.5493C206.868 90.2961 206.379 90.2787 205.38 89.4537C204.881 89.0424 204.249 88.5434 203.974 88.3446C203.365 87.9047 203.403 87.6856 204.157 87.2984C204.475 87.135 204.894 86.8275 205.089 86.6155C205.283 86.4034 204.93 86.5655 204.304 86.9755C203.234 87.6765 203.117 87.6983 202.373 87.3409C201.455 86.8999 201.415 87.0117 203.401 84.4C204.095 83.4862 204.634 82.6876 204.598 82.6251C204.318 82.1383 198.643 90.7687 196.861 94.3927C196.358 95.4143 195.894 96.1496 195.828 96.0268C195.721 95.8242 195.448 91.1543 195.478 90.0087L195.49 89.5342L195.335 89.9705C195.196 90.3629 193.621 91.0637 193.157 90.9395C192.976 90.8909 193.042 90.2351 193.527 87.2465C193.657 86.4438 193.673 85.8688 193.563 85.9689C193.453 86.0691 193.008 86.2273 192.574 86.3209C192.141 86.4145 191.227 86.7215 190.545 87.0031C189.084 87.6061 189.085 87.5772 190.614 84.8779C191.243 83.7664 191.731 82.8097 191.698 82.7518C191.469 82.3555 188.349 88.6061 187.392 91.3764C187.027 92.434 186.683 93.2018 186.628 93.0825C186.372 92.5215 186.571 86.1538 186.882 84.995C186.948 84.7456 186.916 84.4488 186.809 84.3354C186.472 83.9763 184.857 92.165 184.376 96.6731C183.956 100.608 184 106.242 184.463 107.956C184.656 108.667 184.655 108.65 184.418 105.619C184.251 103.492 184.288 99.6727 184.493 97.9328L184.615 96.8907L184.944 98.4119C185.124 99.2484 185.266 99.7162 185.258 99.4514C185.196 97.3819 186.028 94.0484 186.485 94.5352C186.581 94.637 186.756 94.354 186.877 93.9046C187.346 92.1546 192.051 88.7228 192.837 89.5583C193.187 89.9311 192.526 91.5125 191.779 92.091C187.408 95.4734 185.41 103.78 187.841 108.466L188.337 109.423L191.323 110.25C196.004 111.548 198.026 111.778 198.972 111.121C202.704 108.529 205.423 101.518 204.646 96.4962C204.246 93.9181 202.6 91.7592 200.3 90.7979C199.309 90.3834 199.305 90.3771 199.698 89.7979C200.706 88.3135 204.577 91.2556 206.92 95.2878L208.115 97.3434L208.351 96.4616C208.623 95.4445 209.099 95.179 209.374 95.8909C209.543 96.3283 209.595 96.2651 209.849 95.3167C210.045 94.5851 210.289 94.1687 210.627 93.9868C210.898 93.8414 211.003 93.7715 210.859 93.8317C210.257 94.0842 210.026 93.7674 210.237 92.979C210.432 92.2507 210.482 92.2114 210.744 92.5773C210.995 92.9278 211.002 92.8845 210.799 92.2587C210.583 91.5926 210.71 91.0194 212.39 85.1018C213.395 81.5638 214.201 78.6648 214.182 78.6595C214.162 78.6544 213.876 79.4 213.546 80.3166ZM196.401 76.2838C196.319 76.5902 196.336 76.7292 196.439 76.5924C196.542 76.4558 196.609 76.2051 196.588 76.0353C196.568 75.8657 196.484 75.9774 196.401 76.2838ZM207.247 79.3689C206.852 79.8722 206.854 79.8868 207.274 79.5694C207.523 79.3811 207.749 79.1461 207.775 79.0469C207.866 78.7082 207.673 78.826 207.247 79.3689ZM237.629 90.5399C235.747 95.4319 232.869 100.695 230.264 104.011C229.548 104.923 228.859 105.802 228.733 105.966C228.608 106.129 228.942 105.97 229.477 105.613C234.347 102.364 239.656 104.957 239.841 110.674C239.896 112.349 238.897 116.208 237.862 118.324L237.552 118.957L238.445 118.36C238.936 118.032 239.82 117.221 240.409 116.557C241.374 115.468 241.541 115.371 242.103 115.568C242.559 115.729 242.694 115.904 242.609 116.223C242.544 116.462 242.561 116.618 242.646 116.569C242.791 116.485 243.266 113.499 243.39 111.885C243.436 111.294 243.535 111.147 243.886 111.15C244.243 111.153 244.233 111.124 243.831 110.994C243.49 110.883 243.375 110.695 243.459 110.381C243.617 109.791 243.793 103.73 243.65 103.813C243.589 103.848 243.477 105.303 243.399 107.046C243.321 108.789 243.212 110.391 243.157 110.606C242.949 111.412 242.495 110.792 242.294 109.427C242.18 108.65 241.878 107.506 241.623 106.885L241.16 105.756L241.891 105.659C242.293 105.606 242.592 105.511 242.556 105.448C242.52 105.386 242.21 105.382 241.868 105.439C241.312 105.533 241.13 105.398 240.146 104.164C238.462 102.053 236.486 101.436 233.197 101.995L231.866 102.222L232.356 101.498C232.917 100.666 233.51 100.559 236.761 100.7C238.365 100.769 238.513 100.747 237.505 100.589C236.813 100.481 235.597 100.419 234.802 100.451C234.007 100.484 233.288 100.493 233.205 100.473C233.121 100.452 233.429 99.8105 233.89 99.0472C235.594 96.22 239.097 88.2016 238.677 88.0891C238.625 88.0752 238.153 89.1779 237.629 90.5399ZM243.352 89.4397C243.321 89.5543 245.421 91.8369 246.258 92.599C247.422 93.6585 246.933 92.9974 245.441 91.4943C244.624 90.6705 243.919 89.8762 243.875 89.7287C243.798 89.4704 243.402 89.2521 243.352 89.4397ZM206.071 80.677C205.254 81.635 205.278 81.8415 206.101 80.9503C206.476 80.5455 206.753 80.1644 206.718 80.1034C206.683 80.0423 206.392 80.3006 206.071 80.677ZM242.993 89.9622C242.969 90.0215 243.087 91.934 243.255 94.2121C243.422 96.4901 243.595 98.2404 243.639 98.1016C243.816 97.5453 243.177 89.5007 242.993 89.9622ZM233.595 88.7578C233.433 89.3711 233.416 89.6068 233.558 89.2818C233.7 88.9567 233.833 88.4549 233.853 88.1667C233.874 87.8785 233.758 88.1445 233.595 88.7578ZM262.372 95.9909C262.278 96.3597 262.295 96.4965 262.41 96.2948C262.524 96.0931 262.601 95.7913 262.581 95.6241C262.56 95.4569 262.466 95.622 262.372 95.9909ZM264.384 99.6348C264.021 101.245 263.749 102.615 263.781 102.678C263.878 102.871 264.6 99.7889 264.829 98.2015C264.971 97.2127 264.821 97.6976 264.384 99.6348ZM262.206 97.8569C261.409 102.902 261.617 110.861 262.679 116.018C262.908 117.13 263.044 118.025 262.982 118.009C262.54 117.89 258.342 112.359 256.623 109.63C255.971 108.594 256.166 108.978 257.056 110.483C257.947 111.988 258.969 113.552 259.327 113.958L259.977 114.695L259.415 116.336C258.78 118.189 258.913 118.191 259.675 116.339L260.183 115.105L261.695 116.946C262.526 117.958 263.26 118.755 263.325 118.717C263.391 118.68 263.215 117.423 262.936 115.926C262.006 110.941 262.007 110.543 262.948 106.828L263.782 103.534L262.914 106.287L262.046 109.04L262.005 106.282C261.982 104.765 262.037 102.469 262.127 101.18C262.218 99.8903 262.313 98.3575 262.339 97.7733L262.386 96.7112L262.206 97.8569ZM232.516 91.2749C230.215 96.8887 222.621 104.252 212.782 110.409L210.377 111.914L210.835 110.723L211.293 109.533L210.449 110.978C209.985 111.773 209.623 112.459 209.645 112.502C209.712 112.63 215.158 109.252 217.406 107.689C220.998 105.19 224.269 102.29 228.563 97.7991C230.437 95.8386 233.698 90.3377 233.083 90.173C233.026 90.1576 232.77 90.6536 232.516 91.2749ZM194.413 82.9164C194.265 83.4679 194.248 83.7053 194.375 83.4436C194.502 83.1819 194.623 82.7309 194.644 82.4408C194.665 82.1507 194.561 82.3648 194.413 82.9164ZM192.133 81.9565C191.769 82.4593 191.793 82.6208 192.176 82.2393C192.366 82.0504 192.487 81.8363 192.445 81.7637C192.403 81.6909 192.263 81.7777 192.133 81.9565ZM195.629 85.0335C195.488 85.3242 195.46 85.5852 195.565 85.6135C195.67 85.6416 195.823 85.414 195.906 85.1076C195.988 84.8012 196.016 84.5402 195.97 84.5277C195.923 84.5151 195.769 84.7427 195.629 85.0335ZM231.261 96.6112C231.047 97.4079 231.001 97.7448 231.156 97.3595C231.313 96.9743 231.487 96.3227 231.545 95.911C231.602 95.4994 231.474 95.8146 231.261 96.6112ZM194.729 86.8697C194.414 87.482 193.964 88.576 193.728 89.301C193.491 90.0259 193.443 90.2497 193.621 89.7981C193.994 88.8507 195.092 88.4256 195.314 89.1426C195.462 89.6189 195.504 89.4161 195.641 87.5616C195.782 85.6622 195.47 85.4257 194.729 86.8697ZM209.766 90.8917C210.168 91.6316 210.226 92.0477 210.047 92.9129C209.704 94.5777 209.273 94.5341 208.169 92.7227C207.665 91.8963 207.093 91.0649 206.897 90.875C206.568 90.5561 206.622 90.4877 207.613 89.9704C208.81 89.3452 208.959 89.4091 209.766 90.8917ZM185.931 90.5445C185.45 91.5247 185.438 90.5064 185.91 88.7587L186.301 87.3111L186.27 88.6162C186.252 89.334 186.1 90.2018 185.931 90.5445ZM230.568 100.008C230.453 100.437 230.452 100.625 230.565 100.425C230.679 100.226 230.773 99.8749 230.774 99.6455C230.776 99.4162 230.683 99.5793 230.568 100.008ZM153.596 80.5779C153.35 81.4971 153.288 81.8838 153.459 81.4369C153.63 80.9903 153.832 80.2382 153.907 79.7656C153.982 79.2933 153.842 79.6587 153.596 80.5779ZM209.719 94.9135C209.651 95.1657 209.512 95.2836 209.41 95.175C209.308 95.0665 209.264 94.8334 209.311 94.6566C209.358 94.4799 209.497 94.3623 209.619 94.3951C209.742 94.4278 209.786 94.6612 209.719 94.9135ZM201.332 92.8671C205.665 96.4953 202.848 108.44 197.144 110.628C196.03 111.055 196.029 111.055 192.945 110.229L189.86 109.402L189.16 108.187C186.681 103.88 188.299 96.8135 192.627 93.0443C193.422 92.3523 194.819 91.6234 195.17 91.7175C195.235 91.735 195.325 92.6458 195.371 93.7418C195.479 96.3687 195.637 97.3228 195.899 96.9288C196.011 96.7617 196.616 95.5831 197.244 94.3103C197.872 93.0371 198.455 91.9303 198.539 91.8509C198.824 91.5826 200.547 92.21 201.332 92.8671ZM229.649 102.628C229.435 103.425 229.388 103.762 229.544 103.376C229.7 102.991 229.875 102.339 229.932 101.928C229.99 101.516 229.862 101.831 229.649 102.628ZM209.399 97.2022C209.284 97.6312 209.283 97.8188 209.396 97.6194C209.51 97.42 209.604 97.0688 209.605 96.8394C209.607 96.6101 209.514 96.7732 209.399 97.2022ZM152.827 82.82C152.443 83.4868 150.272 91.6949 150.385 92.0545C150.437 92.2199 151.081 90.1085 151.817 87.3628C152.553 84.6169 153.142 82.3666 153.125 82.3625C153.109 82.3581 152.975 82.5639 152.827 82.82ZM169.774 87.786C168.983 87.873 168.621 88.6015 168.951 89.4381C169.335 90.4109 170.259 90.7625 170.639 90.0802C171.312 88.8675 170.859 87.6666 169.774 87.786ZM170.644 89.4009C170.269 90.4465 169.362 90.3251 169.087 89.1925C168.922 88.513 168.947 88.4591 169.549 88.1852C170.504 87.7505 171.028 88.3317 170.644 89.4009ZM209.059 99.38C208.93 99.8709 208.928 100.057 209.056 99.7944C209.183 99.5314 209.289 99.1297 209.29 98.9018C209.292 98.6739 209.187 98.8891 209.059 99.38ZM228.81 104.792C228.695 105.221 228.694 105.408 228.807 105.209C228.92 105.01 229.014 104.658 229.016 104.429C229.017 104.2 228.925 104.363 228.81 104.792ZM233.153 105.828C229.104 106.159 224.516 111.336 222.871 117.431L222.085 120.345L222.595 121.111C223.288 122.152 225.543 124.109 226.994 124.926L228.184 125.598L229.227 124.884C237.24 119.405 240.154 105.257 233.153 105.828ZM165.351 88.487C164.76 88.8696 164.664 89.4773 165.117 89.9677C165.787 90.6918 167.006 89.6344 166.578 88.7007C166.333 88.1657 165.951 88.0991 165.351 88.487ZM166.374 89.1543C166.362 89.8646 165.955 90.1806 165.399 89.9104C164.886 89.6608 164.95 89.0302 165.522 88.6987C166.163 88.3276 166.385 88.4463 166.374 89.1543ZM213.043 102.039C212.655 102.469 212.659 102.476 213.142 102.211C213.42 102.059 213.602 101.857 213.548 101.762C213.493 101.668 213.266 101.792 213.043 102.039ZM235.402 108.203C237.466 111.789 232.913 121.536 227.937 124.187L227.137 124.613L226.08 123.886C223.789 122.31 223.406 121.765 223.486 120.2C223.858 112.924 232.886 103.835 235.402 108.203ZM208.812 101.105C208.73 101.412 208.747 101.551 208.85 101.414C208.952 101.277 209.02 101.027 208.999 100.857C208.978 100.687 208.894 100.799 208.812 101.105ZM227.929 106.603C227.76 106.908 227.658 107.22 227.702 107.298C227.747 107.376 227.922 107.19 228.091 106.885C228.261 106.581 228.362 106.268 228.318 106.19C228.273 106.113 228.098 106.298 227.929 106.603ZM211.565 103.539C211.082 104.079 210.714 104.569 210.747 104.626C210.78 104.684 211.223 104.255 211.731 103.672C212.239 103.089 212.607 102.6 212.549 102.584C212.491 102.569 212.049 102.998 211.565 103.539ZM243.022 112.747C242.836 115.063 242.689 115.437 242.032 115.261C241.481 115.113 241.481 115.097 242.014 113.107C242.68 110.619 243.208 110.431 243.022 112.747ZM160.616 90.2689C159.732 92.3529 156.542 102.839 156.399 104.13C156.281 105.203 156.575 104.314 157.71 100.182C158.515 97.2498 159.61 93.6946 160.142 92.2821C161.049 89.8781 161.382 88.462 160.616 90.2689ZM162.16 90.146C161.379 90.7011 161.952 92.0293 162.853 91.7494C163.473 91.5568 163.676 91.0581 163.359 90.5077C163.033 89.9405 162.624 89.817 162.16 90.146ZM163.185 90.6405C163.435 91.1872 162.953 91.7223 162.417 91.4929C161.892 91.2682 161.869 90.4698 162.382 90.3088C162.864 90.1573 162.987 90.2081 163.185 90.6405ZM166.969 92.1725C163.649 92.405 162.308 96.4388 164.816 98.6492C166.72 100.327 170.21 99.1962 170.883 96.6825C171.482 94.4498 169.36 92.0051 166.969 92.1725ZM169.565 93.395C171.893 95.326 170.495 98.8343 167.263 99.171C163.865 99.525 162.403 94.8622 165.296 92.8992C166.573 92.0327 168.142 92.2151 169.565 93.395ZM211.71 108.211C211.514 108.947 211.482 109.232 211.639 108.845C211.795 108.457 211.956 107.855 211.995 107.507C212.034 107.158 211.905 107.475 211.71 108.211ZM150.01 93.9477C149.796 94.7444 149.749 95.0812 149.905 94.6959C150.061 94.3107 150.236 93.6591 150.293 93.2474C150.351 92.8358 150.223 93.151 150.01 93.9477ZM258.751 122.226C255.172 122.392 249.424 123.954 242.112 126.748C240.402 127.401 240.296 127.34 241.48 126.383C242.635 125.449 241.805 125.962 239.334 127.709C237.279 129.161 234.652 130.594 231.89 131.77C229.733 132.688 229.522 132.952 231.622 132.105L232.49 131.755L232.348 132.402L232.206 133.049L232.528 132.398C233.585 130.258 247.082 124.579 254.714 123.063C260.469 121.92 261.825 122.294 262.267 125.144C262.383 125.895 262.691 126.854 262.951 127.275C263.21 127.695 263.484 128.27 263.559 128.553C263.66 128.937 263.72 128.98 263.794 128.722C263.849 128.533 263.626 127.936 263.3 127.396C262.973 126.856 262.58 125.726 262.425 124.884C262.038 122.781 261.12 122.116 258.751 122.226ZM241.268 117.67C241.226 117.826 240.569 118.353 239.809 118.841C237.014 120.631 235.026 123.391 234.009 126.895C233.509 128.618 233.414 128.774 232.213 129.851C230.911 131.019 227.73 133.018 226.57 133.396C226.211 133.513 226.033 133.645 226.175 133.69C226.317 133.735 226.793 133.603 227.234 133.396C227.674 133.189 228.086 133.084 228.148 133.163C228.211 133.242 228.232 133.229 228.194 133.134C228.157 133.039 228.864 132.501 229.765 131.938C232.895 129.984 233.814 128.99 234.248 127.091C234.753 124.881 235.558 123.334 237.164 121.48C238.551 119.881 240.896 118.093 240.729 118.763C240.552 119.478 237.244 124.41 235.734 126.211C234.888 127.22 234.232 128.109 234.276 128.187C234.403 128.407 236.963 125.258 238.473 123.025C239.993 120.777 241.597 117.825 241.443 117.559C241.389 117.463 241.31 117.514 241.268 117.67ZM149.402 97.3676C148.118 104.009 149.311 108.467 153.394 112.29L154.535 113.358L154.021 114.81L153.507 116.261L154.067 115.098C154.462 114.275 154.831 112.868 155.325 110.3C156.231 105.582 156.277 105.246 155.793 106.893C155.571 107.649 155.227 109.311 155.03 110.586C154.832 111.86 154.619 112.933 154.555 112.97C154.29 113.124 151.972 110.493 150.991 108.925C149.202 106.065 148.801 103.274 149.435 98.0928C149.689 96.0116 149.685 95.9079 149.402 97.3676ZM257.77 125.592C257.324 125.754 257.138 125.993 257.054 126.51C256.809 128.006 258.677 128.461 259.209 127.035C259.64 125.88 258.93 125.168 257.77 125.592ZM181.302 105.437C181.215 110.683 184.402 121.469 187.202 125.404C188.003 126.529 187.801 126.475 186.353 125.179C185.722 124.613 185.192 124.201 185.176 124.262C185.137 124.406 187.203 126.247 187.869 126.663C188.231 126.889 187.916 126.141 186.775 124.072C184.293 119.57 182.776 114.904 181.868 108.974C181.437 106.163 181.542 106.002 182.389 108.18C183.128 110.081 185.579 114.778 185.773 114.665C185.844 114.624 186.12 114.989 186.386 115.477L186.87 116.364L186.462 115.418C186.238 114.899 185.972 114.475 185.871 114.478C185.443 114.489 183.134 109.682 181.559 105.5L181.312 104.843L181.302 105.437ZM258.986 126.062C259.094 126.248 259.123 126.619 259.051 126.886C258.74 128.049 257.074 127.817 257.251 126.636C257.4 125.643 258.53 125.27 258.986 126.062ZM263.361 129.481C263.278 129.796 263.917 131.787 264.005 131.489C264.049 131.343 263.933 130.786 263.748 130.253C263.564 129.719 263.389 129.372 263.361 129.481ZM184.558 108.784C184.493 109.026 185.232 112.462 185.357 112.495C185.418 112.511 185.299 111.701 185.094 110.693C184.708 108.803 184.629 108.52 184.558 108.784ZM259.674 129.57C259.087 130.064 259.148 130.595 259.814 130.774C260.529 130.965 261.115 130.329 260.773 129.734C260.433 129.144 260.218 129.112 259.674 129.57ZM260.557 130.158C260.446 130.573 259.753 130.66 259.538 130.286C259.431 130.099 259.532 129.915 259.84 129.736C260.349 129.441 260.695 129.645 260.557 130.158ZM253.864 129.678C252.934 129.698 251.071 130.873 250.897 131.55C250.8 131.927 250.932 131.852 251.426 131.249C253.296 128.972 257 129.951 257.531 132.864C258.292 137.036 251.556 137.979 250.701 133.821C250.601 133.337 250.48 133.091 250.431 133.275C250.12 134.443 251.456 136.177 252.981 136.586C256.431 137.51 259.08 134.353 257.211 131.545C256.353 130.256 255.264 129.649 253.864 129.678ZM263.261 132.715C261.283 135.558 249.858 143.775 235.691 152.544C232.88 154.284 231.077 155.55 230.888 155.915C230.284 157.085 229.76 157.633 228.907 157.984C227.996 158.36 227.646 158.759 226.719 160.48C226.41 161.054 225.551 162.113 224.809 162.834C223.099 164.497 222.433 165.305 221.906 166.358L221.486 167.198L221.53 165.615C221.554 164.745 221.509 163.927 221.43 163.798C221.351 163.666 221.295 163.777 221.304 164.046C221.335 164.941 221.161 168.742 220.841 174.141C220.666 177.089 220.583 179.411 220.655 179.301C220.727 179.192 220.932 176.689 221.111 173.741C221.545 166.582 221.691 166.211 225.601 162.33C226.261 161.676 226.926 160.752 227.185 160.132C227.554 159.247 227.867 158.917 228.998 158.219C229.944 157.636 230.511 157.098 230.837 156.475C231.364 155.47 231.366 155.468 235.939 152.673C249.944 144.115 263.849 133.915 263.752 132.272C263.744 132.139 263.523 132.338 263.261 132.715ZM260.348 132.332C259.321 132.997 260.093 134.165 261.154 133.551C261.634 133.273 261.732 133.106 261.622 132.748C261.421 132.098 260.948 131.944 260.348 132.332ZM261.018 133.38C260.349 133.645 260.137 133.577 260.085 133.081C260.018 132.437 260.964 132.163 261.286 132.733C261.512 133.132 261.485 133.195 261.018 133.38ZM207.341 123.535C202.96 123.65 199.438 125.281 198.867 127.46C198.802 127.705 199.086 127.405 199.498 126.793C200.809 124.843 203.803 123.742 207.763 123.753L209.495 123.758L210.406 125.453C213.044 130.361 212.01 133.246 207.447 133.713C204.03 134.063 199.48 131.366 199.093 128.76C199.011 128.208 198.937 128.097 198.85 128.395C198.782 128.631 199.086 129.423 199.525 130.154C202.257 134.703 210.788 135.388 211.923 131.149C212.242 129.955 211.752 127.603 210.734 125.443C209.744 123.343 209.962 123.466 207.341 123.535ZM231.827 133.426C230.83 136.33 223.44 139.613 217.186 139.929L215.467 140.015L215.22 139.405C215.006 138.873 214.814 138.762 213.74 138.552L212.506 138.311L213.749 138.688C215.203 139.13 215.229 139.2 214.713 141.339L214.352 142.835L214.835 141.552L215.317 140.268L217.256 140.145C223.916 139.723 231.956 136.041 231.974 133.405C231.976 133.052 231.954 133.055 231.827 133.426ZM153.173 116.996C153.122 117.436 153.233 118.079 153.418 118.425L153.754 119.054L152.208 123.367C150.025 129.455 145.906 141.719 145.797 142.455C145.747 142.794 146.89 139.573 148.336 135.297C149.783 131.021 151.659 125.584 152.506 123.215L154.045 118.907L153.694 118.25C153.5 117.889 153.325 117.279 153.303 116.895C153.266 116.225 153.26 116.229 153.173 116.996ZM190.53 135.138C190.352 136.076 190.232 136.895 190.264 136.958C190.372 137.174 190.763 135.321 190.809 134.377C190.842 133.678 190.77 133.875 190.53 135.138ZM205.863 139.009L206.773 139.253L205.118 140.096C203.693 140.821 203.409 140.888 203.083 140.576C202.874 140.377 202.283 140.042 201.77 139.833C200.942 139.495 200.8 139.323 200.521 138.314L200.206 137.175L202.58 137.97C203.885 138.407 205.363 138.874 205.863 139.009ZM213.364 144.324C211.707 147.363 208.895 150.44 207.79 150.423C206.916 150.41 205.942 149.324 202.821 144.887C202.522 144.461 202.414 144.408 202.348 144.653C202.301 144.827 202.347 144.992 202.45 145.02C202.553 145.048 202.591 146.16 202.536 147.491C202.272 153.803 202.907 156.607 204.712 157.091C205.939 157.419 212.509 155.638 212.7 154.925C212.737 154.787 212.421 154.917 211.998 155.213C211.159 155.8 205.484 157.059 204.665 156.839C203.181 156.442 202.584 153.832 202.75 148.46C202.784 147.344 202.805 146.24 202.796 146.008C202.769 145.288 203.109 145.613 204.798 147.923C207.057 151.013 207.555 151.24 209.227 149.94C209.792 149.501 210.343 149.132 210.453 149.121C210.709 149.095 212.443 152.863 212.592 153.768C212.654 154.146 212.783 154.476 212.88 154.502C213.274 154.608 212.517 152.475 211.263 149.943L210.611 148.628L211.601 147.406C212.682 146.073 214.179 143.587 214.149 143.176C214.139 143.034 213.786 143.551 213.364 144.324ZM190.18 137.791C190.08 138.159 190.01 138.731 190.026 139.064L190.055 139.668L190.2 139.11C190.28 138.803 190.349 138.231 190.354 137.838L190.364 137.124L190.18 137.791ZM199.994 144.547C199.515 146.334 195.838 152.022 194.485 153.069C193.197 154.065 192 153.157 189.046 148.944C186.463 145.259 186.422 144.661 188.656 143.246C189.88 142.471 190.164 142.546 190.114 143.632C190.065 144.681 190.983 146.247 191.767 146.454C192.786 146.724 194.723 146.254 197.311 145.108C199.857 143.982 200.162 143.918 199.994 144.547ZM111.861 127.105C107.863 127.037 99.3255 130.826 94.9638 134.605C90.9102 138.117 85.7957 146.109 84.7517 150.562C84.6572 150.965 85.0021 150.278 85.5179 149.037C90.4189 137.246 98.0493 130.449 109.545 127.636C113.487 126.671 117.263 129.154 117.061 132.578C116.958 134.321 115.53 135.339 111.873 136.275C108.261 137.2 103.086 140.766 100.135 144.363C98.1847 146.741 95.5048 151.171 95.166 152.578C95.0917 152.886 95.485 152.239 96.0397 151.14C100.046 143.202 105.831 138.104 113.046 136.152C116.81 135.134 118.156 133.052 116.815 130.327C116.021 128.716 113.59 127.135 111.861 127.105ZM144.86 144.54C144.558 145.333 144.344 146.04 144.385 146.11C144.425 146.18 144.707 145.593 145.011 144.804C145.316 144.015 145.529 143.309 145.486 143.234C145.444 143.16 145.162 143.747 144.86 144.54ZM143.896 146.886C143.802 147.255 143.819 147.391 143.934 147.19C144.048 146.988 144.125 146.686 144.105 146.519C144.084 146.352 143.991 146.517 143.896 146.886ZM143.161 148.251C142.986 148.604 142.339 149.567 141.723 150.392C140.548 151.965 139.956 153.591 139.833 155.59C139.795 156.205 139.944 155.751 140.266 154.273C140.73 152.141 140.822 151.931 141.912 150.484C143.054 148.968 143.804 147.697 143.589 147.639C143.527 147.623 143.335 147.898 143.161 148.251ZM139.196 157.262C139.057 157.713 138.49 159.156 137.934 160.469C137.379 161.782 136.933 162.983 136.943 163.138C136.972 163.587 139.353 157.673 139.403 157.027C139.437 156.588 139.385 156.647 139.196 157.262ZM220.479 180.138C220.312 180.762 220.233 187.412 220.368 189.583C220.472 191.261 220.836 191.998 222.29 193.473C222.555 193.741 222.582 194.198 222.396 195.292L222.149 196.754L222.5 195.582L222.85 194.41L224.202 194.923C231.983 197.873 238.632 203.637 238.473 207.292C238.29 211.471 231.984 220.667 223.554 229.049C220.112 232.471 216.026 233.161 206.482 231.932C206.102 231.883 206.602 232.015 207.594 232.226C211.743 233.107 216.341 232.965 219.528 231.857C221.575 231.146 222.372 230.585 224.649 228.253C226.156 226.708 226.406 226.542 227.115 226.609C230.436 226.92 238.641 221.689 239.437 218.751C239.891 217.078 238.041 215.846 235.667 216.242L234.631 216.415L235.043 215.771C237.875 211.345 239.139 207.873 238.626 205.927C237.74 202.565 230.75 197.123 224.153 194.66C223.349 194.36 222.715 194.023 222.745 193.911C222.775 193.8 222.358 193.207 221.818 192.593C221.168 191.855 220.79 191.168 220.701 190.56C220.51 189.258 220.45 184.144 220.599 181.839C220.73 179.813 220.696 179.328 220.479 180.138ZM135.715 165.722C135.215 166.977 134.838 168.063 134.879 168.134C134.92 168.206 135.364 167.236 135.864 165.981C136.365 164.725 136.741 163.64 136.7 163.568C136.659 163.497 136.216 164.466 135.715 165.722ZM94.3183 154.441C88.8785 168.343 92.0408 181.375 102.329 187.453C104.069 188.481 107.667 189.581 109.297 189.583C109.948 189.584 109.784 189.518 108.544 189.28C107.672 189.113 106.84 188.979 106.696 188.983C105.359 189.022 101.246 186.702 98.9446 184.61C92.04 178.333 90.215 169.365 93.5162 157.933C94.2653 155.339 94.8615 153.213 94.8413 153.207C94.8213 153.202 94.5859 153.757 94.3183 154.441ZM83.7384 153.696C83.3776 155.044 83.2742 155.576 83.5085 154.879C83.7427 154.182 84.0378 153.079 84.1644 152.427C84.2909 151.777 84.0992 152.347 83.7384 153.696ZM133.845 170.428C133.447 171.567 133.13 172.645 133.141 172.824C133.152 173.002 133.511 172.128 133.939 170.882C134.367 169.635 134.684 168.557 134.643 168.486C134.603 168.416 134.244 169.29 133.845 170.428ZM82.1817 159.488C81.8854 160.591 81.7945 161.081 81.9798 160.576C82.1649 160.071 82.4074 159.169 82.5183 158.571C82.6295 157.973 82.4779 158.385 82.1817 159.488ZM132.781 173.473C132.678 173.615 132.166 175.439 131.643 177.527L130.692 181.324L131.893 177.286C133.071 173.324 133.156 172.955 132.781 173.473ZM81.6361 162.171C81.3648 163.078 81.148 167.138 81.2471 169.454C81.6542 178.962 86.4613 188.374 93.9324 194.289C95.8373 195.798 99.231 197.869 100.115 198.062C100.569 198.162 100.597 198.143 100.26 197.968C86.9434 191.018 80.345 178.947 81.6256 163.877C81.7348 162.593 81.7395 161.825 81.6361 162.171ZM130.434 182.858C130.097 183.996 129.934 184.214 128.793 185.039C125.875 187.15 119.13 189.091 113.635 189.401C112.238 189.48 111.264 189.595 111.471 189.657C112.19 189.872 117.186 189.33 119.93 188.739C123.328 188.008 126.426 186.824 128.516 185.457L130.099 184.421L130.026 185.759L129.952 187.097L130.118 185.947C130.209 185.315 130.402 184.076 130.546 183.195L130.808 181.594L130.434 182.858ZM129.875 187.673C129.791 187.979 129.735 188.502 129.751 188.834C129.789 189.647 130.006 188.838 130.019 187.831C130.028 187.19 130.013 187.174 129.875 187.673ZM239.122 217.481L239.486 218.113L238.357 217.978C237.736 217.903 237.024 217.962 236.776 218.108C236.36 218.352 236.384 218.36 237.084 218.206C237.502 218.114 238.182 218.129 238.595 218.239C239.34 218.437 239.344 218.447 238.989 219.238C238.791 219.677 238.449 220.107 238.229 220.193C238.008 220.278 237.873 220.428 237.929 220.525C238.306 221.179 231.496 225.537 229.113 226.167C227.93 226.48 226.642 226.496 226.723 226.196C226.734 226.152 227.773 224.917 229.031 223.451C230.289 221.985 232.008 219.891 232.851 218.797C234.273 216.954 234.466 216.79 235.512 216.545C237.026 216.19 238.616 216.602 239.122 217.481ZM129.744 190.265C129.707 190.715 129.729 191.842 129.794 192.769C129.954 195.041 130.089 194.864 127.17 196.22C118.653 200.177 110.987 201.096 103.42 199.069C101.079 198.442 100.843 198.409 101.927 198.859C108.627 201.639 119.78 200.397 128.35 195.916L129.898 195.107L130.298 197.727C131.721 207.052 135.639 214.604 143.305 222.802C148.173 228.008 151.328 230.204 155.575 231.342L156.892 231.695L157.953 233.537C160.542 238.034 164.238 239.195 168.12 236.732C169.562 235.817 170.987 234.177 171.455 232.894L171.786 231.983L171.337 232.856C170.201 235.062 168.448 236.678 168.194 235.755C168.089 235.375 168.053 235.426 168.006 236.025C167.954 236.701 167.837 236.809 166.655 237.273L165.361 237.782L164.941 236.904C164.71 236.421 164.492 236.135 164.456 236.269C164.421 236.402 164.508 236.677 164.65 236.878C165.649 238.291 162.804 238.022 160.678 236.501C159.867 235.922 159.208 235.139 158.368 233.756L157.192 231.822L158.341 231.975C161.984 232.463 166.153 232.144 169.759 231.103C172.345 230.357 172.185 230.344 172.054 231.279L171.95 232.027L172.202 231.228C172.341 230.789 172.607 230.362 172.793 230.278C173.644 229.897 179.62 228.818 183.872 228.278C186.45 227.951 189.169 227.604 189.916 227.509C191.242 227.339 191.329 227.357 193.747 228.327C195.108 228.873 196.724 229.444 197.338 229.597C198.285 229.833 194.047 228.115 192.544 227.653C191.498 227.332 192.524 227.133 196.274 226.929C198.396 226.813 200.1 226.662 200.06 226.593C199.936 226.378 192.509 226.906 189.166 227.367C187.424 227.607 184.592 227.971 182.874 228.175C178.825 228.657 174.345 229.527 171.263 230.429C164.907 232.291 161.273 232.458 156.185 231.122C151.39 229.863 148.944 228.354 144.886 224.149C134.864 213.764 130.834 205.217 130.016 192.607C129.903 190.87 129.781 189.816 129.744 190.265ZM236.379 220.391C235.542 220.612 235.795 220.685 236.852 220.527C237.311 220.458 237.537 220.361 237.354 220.312C237.17 220.262 236.732 220.298 236.379 220.391ZM198.836 230.092C199.117 230.399 205.092 232.003 205.282 231.823C205.363 231.746 203.898 231.273 202.026 230.771C200.154 230.27 198.719 229.964 198.836 230.092Z" stroke="#DAD1FF"/>
</g>
<defs>
<clipPath id="clip0_802_2">
<rect width="1440" height="180" fill="white"/>
</clipPath>
</defs>
</svg>
