<svg width="281" height="70" viewBox="0 0 281 70" fill="none" xmlns="http://www.w3.org/2000/svg">
<g clip-path="url(#clip0_7_55)">
<path d="M61.2892 28.3386C60.8309 28.5737 60.3107 28.1616 60.4034 27.6356L61.389 22.0187L57.2054 18.0334C56.8147 17.6606 57.0178 16.9789 57.5415 16.9053L63.3579 16.0788L65.9514 10.9405C66.1853 10.4774 66.8182 10.4774 67.0522 10.9405L69.6457 16.0788L75.4621 16.9053C75.9857 16.9789 76.1888 17.6606 75.7969 18.0334L71.6146 22.0187L72.6002 27.6356C72.6928 28.1616 72.1727 28.5737 71.7143 28.3386L66.5 25.6596L61.2881 28.3386H61.2892Z" fill="#6CF98B"/>
</g>
<g clip-path="url(#clip1_7_55)">
<path d="M233.16 48.5126C232.823 48.6859 232.439 48.3823 232.508 47.9946L233.234 43.8559L230.151 40.9194C229.863 40.6446 230.013 40.1424 230.399 40.0881L234.685 39.4791L236.596 35.693C236.768 35.3518 237.234 35.3518 237.407 35.693L239.318 39.4791L243.604 40.0881C243.989 40.1424 244.139 40.6446 243.85 40.9194L240.769 43.8559L241.495 47.9946C241.563 48.3823 241.18 48.6859 240.842 48.5126L237 46.5386L233.16 48.5126H233.16Z" fill="#ADACF2"/>
</g>
<path d="M47.8679 36H45.1321V41.6604H47.8679V36Z" fill="#57119D"/>
<path d="M47.8679 45.3396H45.1321V51H47.8679V45.3396Z" fill="#57119D"/>
<path d="M44.6604 44.8679V42.1321H39V44.8679H44.6604Z" fill="#57119D"/>
<path d="M54 44.8679L54 42.1321H48.3396V44.8679H54Z" fill="#57119D"/>
<path d="M221.824 11H218.176V18.5472H221.824V11Z" fill="#EA4F87"/>
<path d="M221.824 23.4528H218.176V31H221.824V23.4528Z" fill="#EA4F87"/>
<path d="M217.547 22.8239V19.1761H210V22.8239H217.547Z" fill="#EA4F87"/>
<path d="M230 22.8239L230 19.1761H222.453V22.8239H230Z" fill="#EA4F87"/>
<defs>
<clipPath id="clip0_7_55">
<rect width="19" height="19" fill="white" transform="translate(57 10)"/>
</clipPath>
<clipPath id="clip1_7_55">
<rect width="14" height="14" fill="white" transform="translate(230 35)"/>
</clipPath>
</defs>
</svg>
